<?xml version="1.0" encoding="UTF-8" standalone="no"?>
<!DOCTYPE svg PUBLIC "-//W3C//DTD SVG 1.1//EN"
 "http://www.w3.org/Graphics/SVG/1.1/DTD/svg11.dtd">
<!-- Generated by graphviz version 2.38.0 (20140413.2041)
 -->
<!-- Title: controllers_diagram Pages: 1 -->
<svg width="511pt" height="640pt"
 viewBox="0.00 0.00 510.50 639.50" xmlns="http://www.w3.org/2000/svg" xmlns:xlink="http://www.w3.org/1999/xlink">
<g id="graph0" class="graph" transform="scale(1 1) rotate(0) translate(232 370)">
<title>controllers_diagram</title>
<polygon fill="none" stroke="none" points="-232,269.5 -232,-370 278.5,-370 278.5,269.5 -232,269.5"/>
<!-- _diagram_info -->
<g id="node1" class="node"><title>_diagram_info</title>
<text text-anchor="start" x="-220" y="164.4" font-family="Times,serif" font-size="13.00">Controllers diagram</text>
<text text-anchor="start" x="-220" y="178.4" font-family="Times,serif" font-size="13.00">Date: Mar 16 2017 &#45; 19:30</text>
<text text-anchor="start" x="-220" y="192.4" font-family="Times,serif" font-size="13.00">Migration version: 20170316104822</text>
<text text-anchor="start" x="-220" y="206.4" font-family="Times,serif" font-size="13.00">Generated by RailRoady 1.5.2</text>
<text text-anchor="start" x="-220" y="220.4" font-family="Times,serif" font-size="13.00">http://railroady.prestonlee.com</text>
</g>
<!-- ComponentsController -->
<g id="node2" class="node"><title>ComponentsController</title>
<path fill="none" stroke="black" d="M145.5,132.5C145.5,132.5 262.5,132.5 262.5,132.5 268.5,132.5 274.5,126.5 274.5,120.5 274.5,120.5 274.5,-68.5 274.5,-68.5 274.5,-74.5 268.5,-80.5 262.5,-80.5 262.5,-80.5 145.5,-80.5 145.5,-80.5 139.5,-80.5 133.5,-74.5 133.5,-68.5 133.5,-68.5 133.5,120.5 133.5,120.5 133.5,126.5 139.5,132.5 145.5,132.5"/>
<text text-anchor="middle" x="204" y="-65.3" font-family="Times,serif" font-size="14.00">ComponentsController</text>
<polyline fill="none" stroke="black" points="133.5,-57.5 274.5,-57.5 "/>
<text text-anchor="start" x="141.5" y="-42.3" font-family="Times,serif" font-size="14.00">create</text>
<text text-anchor="start" x="141.5" y="-27.3" font-family="Times,serif" font-size="14.00">destroy</text>
<text text-anchor="start" x="141.5" y="-12.3" font-family="Times,serif" font-size="14.00">edit</text>
<text text-anchor="start" x="141.5" y="2.7" font-family="Times,serif" font-size="14.00">index</text>
<text text-anchor="start" x="141.5" y="17.7" font-family="Times,serif" font-size="14.00">new</text>
<text text-anchor="start" x="141.5" y="32.7" font-family="Times,serif" font-size="14.00">show</text>
<text text-anchor="start" x="141.5" y="47.7" font-family="Times,serif" font-size="14.00">update</text>
<polyline fill="none" stroke="black" points="133.5,55.5 274.5,55.5 "/>
<polyline fill="none" stroke="black" points="133.5,79.5 274.5,79.5 "/>
<text text-anchor="start" x="141.5" y="94.7" font-family="Times,serif" font-size="14.00">_layout</text>
<text text-anchor="start" x="141.5" y="109.7" font-family="Times,serif" font-size="14.00">component_params</text>
<text text-anchor="start" x="141.5" y="124.7" font-family="Times,serif" font-size="14.00">set_component</text>
</g>
<!-- PackagesController -->
<g id="node3" class="node"><title>PackagesController</title>
<path fill="none" stroke="black" d="M145,-115C145,-115 243,-115 243,-115 249,-115 255,-121 255,-127 255,-127 255,-331 255,-331 255,-337 249,-343 243,-343 243,-343 145,-343 145,-343 139,-343 133,-337 133,-331 133,-331 133,-127 133,-127 133,-121 139,-115 145,-115"/>
<text text-anchor="middle" x="194" y="-327.8" font-family="Times,serif" font-size="14.00">PackagesController</text>
<polyline fill="none" stroke="black" points="133,-320 255,-320 "/>
<text text-anchor="start" x="141" y="-304.8" font-family="Times,serif" font-size="14.00">add</text>
<text text-anchor="start" x="141" y="-289.8" font-family="Times,serif" font-size="14.00">create</text>
<text text-anchor="start" x="141" y="-274.8" font-family="Times,serif" font-size="14.00">destroy</text>
<text text-anchor="start" x="141" y="-259.8" font-family="Times,serif" font-size="14.00">edit</text>
<text text-anchor="start" x="141" y="-244.8" font-family="Times,serif" font-size="14.00">index</text>
<text text-anchor="start" x="141" y="-229.8" font-family="Times,serif" font-size="14.00">new</text>
<text text-anchor="start" x="141" y="-214.8" font-family="Times,serif" font-size="14.00">show</text>
<text text-anchor="start" x="141" y="-199.8" font-family="Times,serif" font-size="14.00">update</text>
<polyline fill="none" stroke="black" points="133,-192 255,-192 "/>
<polyline fill="none" stroke="black" points="133,-168 255,-168 "/>
<text text-anchor="start" x="141" y="-152.8" font-family="Times,serif" font-size="14.00">_layout</text>
<text text-anchor="start" x="141" y="-137.8" font-family="Times,serif" font-size="14.00">package_params</text>
<text text-anchor="start" x="141" y="-122.8" font-family="Times,serif" font-size="14.00">set_package</text>
</g>
<!-- ApplicationController -->
<g id="node4" class="node"><title>ApplicationController</title>
<path fill="none" stroke="black" d="M31,265C31,265 143,265 143,265 149,265 155,259 155,253 155,253 155,183 155,183 155,177 149,171 143,171 143,171 31,171 31,171 25,171 19,177 19,183 19,183 19,253 19,253 19,259 25,265 31,265"/>
<text text-anchor="middle" x="87" y="186.2" font-family="Times,serif" font-size="14.00">ApplicationController</text>
<polyline fill="none" stroke="black" points="19,194 155,194 "/>
<polyline fill="none" stroke="black" points="19,218 155,218 "/>
<polyline fill="none" stroke="black" points="19,242 155,242 "/>
<text text-anchor="start" x="27" y="257.2" font-family="Times,serif" font-size="14.00">_layout</text>
</g>
<!-- UsersController -->
<g id="node5" class="node"><title>UsersController</title>
<path fill="none" stroke="black" d="M-139.5,-152.5C-139.5,-152.5 -60.5,-152.5 -60.5,-152.5 -54.5,-152.5 -48.5,-158.5 -48.5,-164.5 -48.5,-164.5 -48.5,-353.5 -48.5,-353.5 -48.5,-359.5 -54.5,-365.5 -60.5,-365.5 -60.5,-365.5 -139.5,-365.5 -139.5,-365.5 -145.5,-365.5 -151.5,-359.5 -151.5,-353.5 -151.5,-353.5 -151.5,-164.5 -151.5,-164.5 -151.5,-158.5 -145.5,-152.5 -139.5,-152.5"/>
<text text-anchor="middle" x="-100" y="-350.3" font-family="Times,serif" font-size="14.00">UsersController</text>
<polyline fill="none" stroke="black" points="-151.5,-342.5 -48.5,-342.5 "/>
<text text-anchor="start" x="-143.5" y="-327.3" font-family="Times,serif" font-size="14.00">create</text>
<text text-anchor="start" x="-143.5" y="-312.3" font-family="Times,serif" font-size="14.00">destroy</text>
<text text-anchor="start" x="-143.5" y="-297.3" font-family="Times,serif" font-size="14.00">edit</text>
<text text-anchor="start" x="-143.5" y="-282.3" font-family="Times,serif" font-size="14.00">index</text>
<text text-anchor="start" x="-143.5" y="-267.3" font-family="Times,serif" font-size="14.00">new</text>
<text text-anchor="start" x="-143.5" y="-252.3" font-family="Times,serif" font-size="14.00">show</text>
<text text-anchor="start" x="-143.5" y="-237.3" font-family="Times,serif" font-size="14.00">update</text>
<polyline fill="none" stroke="black" points="-151.5,-229.5 -48.5,-229.5 "/>
<polyline fill="none" stroke="black" points="-151.5,-205.5 -48.5,-205.5 "/>
<text text-anchor="start" x="-143.5" y="-190.3" font-family="Times,serif" font-size="14.00">_layout</text>
<text text-anchor="start" x="-143.5" y="-175.3" font-family="Times,serif" font-size="14.00">set_user</text>
<text text-anchor="start" x="-143.5" y="-160.3" font-family="Times,serif" font-size="14.00">user_params</text>
</g>
<!-- ComponentPackagesController -->
<g id="node6" class="node"><title>ComponentPackagesController</title>
<path fill="none" stroke="black" d="M-83,113.5C-83,113.5 79,113.5 79,113.5 85,113.5 91,107.5 91,101.5 91,101.5 91,-87.5 91,-87.5 91,-93.5 85,-99.5 79,-99.5 79,-99.5 -83,-99.5 -83,-99.5 -89,-99.5 -95,-93.5 -95,-87.5 -95,-87.5 -95,101.5 -95,101.5 -95,107.5 -89,113.5 -83,113.5"/>
<text text-anchor="middle" x="-2" y="-84.3" font-family="Times,serif" font-size="14.00">ComponentPackagesController</text>
<polyline fill="none" stroke="black" points="-95,-76.5 91,-76.5 "/>
<text text-anchor="start" x="-87" y="-61.3" font-family="Times,serif" font-size="14.00">create</text>
<text text-anchor="start" x="-87" y="-46.3" font-family="Times,serif" font-size="14.00">destroy</text>
<text text-anchor="start" x="-87" y="-31.3" font-family="Times,serif" font-size="14.00">edit</text>
<text text-anchor="start" x="-87" y="-16.3" font-family="Times,serif" font-size="14.00">index</text>
<text text-anchor="start" x="-87" y="-1.3" font-family="Times,serif" font-size="14.00">new</text>
<text text-anchor="start" x="-87" y="13.7" font-family="Times,serif" font-size="14.00">show</text>
<text text-anchor="start" x="-87" y="28.7" font-family="Times,serif" font-size="14.00">update</text>
<polyline fill="none" stroke="black" points="-95,36.5 91,36.5 "/>
<polyline fill="none" stroke="black" points="-95,60.5 91,60.5 "/>
<text text-anchor="start" x="-87" y="75.7" font-family="Times,serif" font-size="14.00">_layout</text>
<text text-anchor="start" x="-87" y="90.7" font-family="Times,serif" font-size="14.00">component_package_params</text>
<text text-anchor="start" x="-87" y="105.7" font-family="Times,serif" font-size="14.00">set_component_package</text>
</g>
<!-- SuppliersController -->
<g id="node7" class="node"><title>SuppliersController</title>
<path fill="none" stroke="black" d="M-6.5,-133.5C-6.5,-133.5 92.5,-133.5 92.5,-133.5 98.5,-133.5 104.5,-139.5 104.5,-145.5 104.5,-145.5 104.5,-334.5 104.5,-334.5 104.5,-340.5 98.5,-346.5 92.5,-346.5 92.5,-346.5 -6.5,-346.5 -6.5,-346.5 -12.5,-346.5 -18.5,-340.5 -18.5,-334.5 -18.5,-334.5 -18.5,-145.5 -18.5,-145.5 -18.5,-139.5 -12.5,-133.5 -6.5,-133.5"/>
<text text-anchor="middle" x="43" y="-331.3" font-family="Times,serif" font-size="14.00">SuppliersController</text>
<polyline fill="none" stroke="black" points="-18.5,-323.5 104.5,-323.5 "/>
<text text-anchor="start" x="-10.5" y="-308.3" font-family="Times,serif" font-size="14.00">create</text>
<text text-anchor="start" x="-10.5" y="-293.3" font-family="Times,serif" font-size="14.00">destroy</text>
<text text-anchor="start" x="-10.5" y="-278.3" font-family="Times,serif" font-size="14.00">edit</text>
<text text-anchor="start" x="-10.5" y="-263.3" font-family="Times,serif" font-size="14.00">index</text>
<text text-anchor="start" x="-10.5" y="-248.3" font-family="Times,serif" font-size="14.00">new</text>
<text text-anchor="start" x="-10.5" y="-233.3" font-family="Times,serif" font-size="14.00">show</text>
<text text-anchor="start" x="-10.5" y="-218.3" font-family="Times,serif" font-size="14.00">update</text>
<polyline fill="none" stroke="black" points="-18.5,-210.5 104.5,-210.5 "/>
<polyline fill="none" stroke="black" points="-18.5,-186.5 104.5,-186.5 "/>
<text text-anchor="start" x="-10.5" y="-171.3" font-family="Times,serif" font-size="14.00">_layout</text>
<text text-anchor="start" x="-10.5" y="-156.3" font-family="Times,serif" font-size="14.00">set_supplier</text>
<text text-anchor="start" x="-10.5" y="-141.3" font-family="Times,serif" font-size="14.00">supplier_params</text>
</g>
<!-- TypesController -->
<g id="node8" class="node"><title>TypesController</title>
<path fill="none" stroke="black" d="M-215.5,94.5C-215.5,94.5 -134.5,94.5 -134.5,94.5 -128.5,94.5 -122.5,88.5 -122.5,82.5 -122.5,82.5 -122.5,-106.5 -122.5,-106.5 -122.5,-112.5 -128.5,-118.5 -134.5,-118.5 -134.5,-118.5 -215.5,-118.5 -215.5,-118.5 -221.5,-118.5 -227.5,-112.5 -227.5,-106.5 -227.5,-106.5 -227.5,82.5 -227.5,82.5 -227.5,88.5 -221.5,94.5 -215.5,94.5"/>
<text text-anchor="middle" x="-175" y="-103.3" font-family="Times,serif" font-size="14.00">TypesController</text>
<polyline fill="none" stroke="black" points="-227.5,-95.5 -122.5,-95.5 "/>
<text text-anchor="start" x="-219.5" y="-80.3" font-family="Times,serif" font-size="14.00">create</text>
<text text-anchor="start" x="-219.5" y="-65.3" font-family="Times,serif" font-size="14.00">destroy</text>
<text text-anchor="start" x="-219.5" y="-50.3" font-family="Times,serif" font-size="14.00">edit</text>
<text text-anchor="start" x="-219.5" y="-35.3" font-family="Times,serif" font-size="14.00">index</text>
<text text-anchor="start" x="-219.5" y="-20.3" font-family="Times,serif" font-size="14.00">new</text>
<text text-anchor="start" x="-219.5" y="-5.3" font-family="Times,serif" font-size="14.00">show</text>
<text text-anchor="start" x="-219.5" y="9.7" font-family="Times,serif" font-size="14.00">update</text>
<polyline fill="none" stroke="black" points="-227.5,17.5 -122.5,17.5 "/>
<polyline fill="none" stroke="black" points="-227.5,41.5 -122.5,41.5 "/>
<text text-anchor="start" x="-219.5" y="56.7" font-family="Times,serif" font-size="14.00">_layout</text>
<text text-anchor="start" x="-219.5" y="71.7" font-family="Times,serif" font-size="14.00">set_type</text>
<text text-anchor="start" x="-219.5" y="86.7" font-family="Times,serif" font-size="14.00">type_params</text>
</g>
</g>
</svg>
