<?xml version="1.0" encoding="UTF-8" standalone="no"?>
<!DOCTYPE svg PUBLIC "-//W3C//DTD SVG 1.1//EN"
 "http://www.w3.org/Graphics/SVG/1.1/DTD/svg11.dtd">
<!-- Generated by graphviz version 2.38.0 (20140413.2041)
 -->
<!-- Title: controllers_diagram Pages: 1 -->
<svg width="646pt" height="659pt"
 viewBox="0.00 0.00 645.50 658.50" xmlns="http://www.w3.org/2000/svg" xmlns:xlink="http://www.w3.org/1999/xlink">
<g id="graph0" class="graph" transform="scale(1 1) rotate(0) translate(232 389)">
<title>controllers_diagram</title>
<polygon fill="none" stroke="none" points="-232,269.5 -232,-389 413.5,-389 413.5,269.5 -232,269.5"/>
<!-- _diagram_info -->
<g id="node1" class="node"><title>_diagram_info</title>
<text text-anchor="start" x="-220" y="164.4" font-family="Times,serif" font-size="13.00">Controllers diagram</text>
<text text-anchor="start" x="-220" y="178.4" font-family="Times,serif" font-size="13.00">Date: Mar 17 2017 &#45; 10:38</text>
<text text-anchor="start" x="-220" y="192.4" font-family="Times,serif" font-size="13.00">Migration version: 20170317021837</text>
<text text-anchor="start" x="-220" y="206.4" font-family="Times,serif" font-size="13.00">Generated by RailRoady 1.5.2</text>
<text text-anchor="start" x="-220" y="220.4" font-family="Times,serif" font-size="13.00">http://railroady.prestonlee.com</text>
</g>
<!-- ComponentsController -->
<g id="node2" class="node"><title>ComponentsController</title>
<path fill="none" stroke="black" d="M145.5,-114.5C145.5,-114.5 262.5,-114.5 262.5,-114.5 268.5,-114.5 274.5,-120.5 274.5,-126.5 274.5,-126.5 274.5,-315.5 274.5,-315.5 274.5,-321.5 268.5,-327.5 262.5,-327.5 262.5,-327.5 145.5,-327.5 145.5,-327.5 139.5,-327.5 133.5,-321.5 133.5,-315.5 133.5,-315.5 133.5,-126.5 133.5,-126.5 133.5,-120.5 139.5,-114.5 145.5,-114.5"/>
<text text-anchor="middle" x="204" y="-312.3" font-family="Times,serif" font-size="14.00">ComponentsController</text>
<polyline fill="none" stroke="black" points="133.5,-304.5 274.5,-304.5 "/>
<text text-anchor="start" x="141.5" y="-289.3" font-family="Times,serif" font-size="14.00">create</text>
<text text-anchor="start" x="141.5" y="-274.3" font-family="Times,serif" font-size="14.00">destroy</text>
<text text-anchor="start" x="141.5" y="-259.3" font-family="Times,serif" font-size="14.00">edit</text>
<text text-anchor="start" x="141.5" y="-244.3" font-family="Times,serif" font-size="14.00">index</text>
<text text-anchor="start" x="141.5" y="-229.3" font-family="Times,serif" font-size="14.00">new</text>
<text text-anchor="start" x="141.5" y="-214.3" font-family="Times,serif" font-size="14.00">show</text>
<text text-anchor="start" x="141.5" y="-199.3" font-family="Times,serif" font-size="14.00">update</text>
<polyline fill="none" stroke="black" points="133.5,-191.5 274.5,-191.5 "/>
<polyline fill="none" stroke="black" points="133.5,-167.5 274.5,-167.5 "/>
<text text-anchor="start" x="141.5" y="-152.3" font-family="Times,serif" font-size="14.00">_layout</text>
<text text-anchor="start" x="141.5" y="-137.3" font-family="Times,serif" font-size="14.00">component_params</text>
<text text-anchor="start" x="141.5" y="-122.3" font-family="Times,serif" font-size="14.00">set_component</text>
</g>
<!-- PackagesController -->
<g id="node3" class="node"><title>PackagesController</title>
<path fill="none" stroke="black" d="M-7,-134C-7,-134 91,-134 91,-134 97,-134 103,-140 103,-146 103,-146 103,-350 103,-350 103,-356 97,-362 91,-362 91,-362 -7,-362 -7,-362 -13,-362 -19,-356 -19,-350 -19,-350 -19,-146 -19,-146 -19,-140 -13,-134 -7,-134"/>
<text text-anchor="middle" x="42" y="-346.8" font-family="Times,serif" font-size="14.00">PackagesController</text>
<polyline fill="none" stroke="black" points="-19,-339 103,-339 "/>
<text text-anchor="start" x="-11" y="-323.8" font-family="Times,serif" font-size="14.00">add</text>
<text text-anchor="start" x="-11" y="-308.8" font-family="Times,serif" font-size="14.00">create</text>
<text text-anchor="start" x="-11" y="-293.8" font-family="Times,serif" font-size="14.00">destroy</text>
<text text-anchor="start" x="-11" y="-278.8" font-family="Times,serif" font-size="14.00">edit</text>
<text text-anchor="start" x="-11" y="-263.8" font-family="Times,serif" font-size="14.00">index</text>
<text text-anchor="start" x="-11" y="-248.8" font-family="Times,serif" font-size="14.00">new</text>
<text text-anchor="start" x="-11" y="-233.8" font-family="Times,serif" font-size="14.00">show</text>
<text text-anchor="start" x="-11" y="-218.8" font-family="Times,serif" font-size="14.00">update</text>
<polyline fill="none" stroke="black" points="-19,-211 103,-211 "/>
<polyline fill="none" stroke="black" points="-19,-187 103,-187 "/>
<text text-anchor="start" x="-11" y="-171.8" font-family="Times,serif" font-size="14.00">_layout</text>
<text text-anchor="start" x="-11" y="-156.8" font-family="Times,serif" font-size="14.00">package_params</text>
<text text-anchor="start" x="-11" y="-141.8" font-family="Times,serif" font-size="14.00">set_package</text>
</g>
<!-- ApplicationController -->
<g id="node4" class="node"><title>ApplicationController</title>
<path fill="none" stroke="black" d="M31,265C31,265 143,265 143,265 149,265 155,259 155,253 155,253 155,183 155,183 155,177 149,171 143,171 143,171 31,171 31,171 25,171 19,177 19,183 19,183 19,253 19,253 19,259 25,265 31,265"/>
<text text-anchor="middle" x="87" y="186.2" font-family="Times,serif" font-size="14.00">ApplicationController</text>
<polyline fill="none" stroke="black" points="19,194 155,194 "/>
<polyline fill="none" stroke="black" points="19,218 155,218 "/>
<polyline fill="none" stroke="black" points="19,242 155,242 "/>
<text text-anchor="start" x="27" y="257.2" font-family="Times,serif" font-size="14.00">_layout</text>
</g>
<!-- UsersController -->
<g id="node5" class="node"><title>UsersController</title>
<path fill="none" stroke="black" d="M-215.5,75.5C-215.5,75.5 -136.5,75.5 -136.5,75.5 -130.5,75.5 -124.5,69.5 -124.5,63.5 -124.5,63.5 -124.5,-125.5 -124.5,-125.5 -124.5,-131.5 -130.5,-137.5 -136.5,-137.5 -136.5,-137.5 -215.5,-137.5 -215.5,-137.5 -221.5,-137.5 -227.5,-131.5 -227.5,-125.5 -227.5,-125.5 -227.5,63.5 -227.5,63.5 -227.5,69.5 -221.5,75.5 -215.5,75.5"/>
<text text-anchor="middle" x="-176" y="-122.3" font-family="Times,serif" font-size="14.00">UsersController</text>
<polyline fill="none" stroke="black" points="-227.5,-114.5 -124.5,-114.5 "/>
<text text-anchor="start" x="-219.5" y="-99.3" font-family="Times,serif" font-size="14.00">create</text>
<text text-anchor="start" x="-219.5" y="-84.3" font-family="Times,serif" font-size="14.00">destroy</text>
<text text-anchor="start" x="-219.5" y="-69.3" font-family="Times,serif" font-size="14.00">edit</text>
<text text-anchor="start" x="-219.5" y="-54.3" font-family="Times,serif" font-size="14.00">index</text>
<text text-anchor="start" x="-219.5" y="-39.3" font-family="Times,serif" font-size="14.00">new</text>
<text text-anchor="start" x="-219.5" y="-24.3" font-family="Times,serif" font-size="14.00">show</text>
<text text-anchor="start" x="-219.5" y="-9.3" font-family="Times,serif" font-size="14.00">update</text>
<polyline fill="none" stroke="black" points="-227.5,-1.5 -124.5,-1.5 "/>
<polyline fill="none" stroke="black" points="-227.5,22.5 -124.5,22.5 "/>
<text text-anchor="start" x="-219.5" y="37.7" font-family="Times,serif" font-size="14.00">_layout</text>
<text text-anchor="start" x="-219.5" y="52.7" font-family="Times,serif" font-size="14.00">set_user</text>
<text text-anchor="start" x="-219.5" y="67.7" font-family="Times,serif" font-size="14.00">user_params</text>
</g>
<!-- ComponentPackagesController -->
<g id="node6" class="node"><title>ComponentPackagesController</title>
<path fill="none" stroke="black" d="M-83,113.5C-83,113.5 79,113.5 79,113.5 85,113.5 91,107.5 91,101.5 91,101.5 91,-87.5 91,-87.5 91,-93.5 85,-99.5 79,-99.5 79,-99.5 -83,-99.5 -83,-99.5 -89,-99.5 -95,-93.5 -95,-87.5 -95,-87.5 -95,101.5 -95,101.5 -95,107.5 -89,113.5 -83,113.5"/>
<text text-anchor="middle" x="-2" y="-84.3" font-family="Times,serif" font-size="14.00">ComponentPackagesController</text>
<polyline fill="none" stroke="black" points="-95,-76.5 91,-76.5 "/>
<text text-anchor="start" x="-87" y="-61.3" font-family="Times,serif" font-size="14.00">create</text>
<text text-anchor="start" x="-87" y="-46.3" font-family="Times,serif" font-size="14.00">destroy</text>
<text text-anchor="start" x="-87" y="-31.3" font-family="Times,serif" font-size="14.00">edit</text>
<text text-anchor="start" x="-87" y="-16.3" font-family="Times,serif" font-size="14.00">index</text>
<text text-anchor="start" x="-87" y="-1.3" font-family="Times,serif" font-size="14.00">new</text>
<text text-anchor="start" x="-87" y="13.7" font-family="Times,serif" font-size="14.00">show</text>
<text text-anchor="start" x="-87" y="28.7" font-family="Times,serif" font-size="14.00">update</text>
<polyline fill="none" stroke="black" points="-95,36.5 91,36.5 "/>
<polyline fill="none" stroke="black" points="-95,60.5 91,60.5 "/>
<text text-anchor="start" x="-87" y="75.7" font-family="Times,serif" font-size="14.00">_layout</text>
<text text-anchor="start" x="-87" y="90.7" font-family="Times,serif" font-size="14.00">component_package_params</text>
<text text-anchor="start" x="-87" y="105.7" font-family="Times,serif" font-size="14.00">set_component_package</text>
</g>
<!-- SuppliersController -->
<g id="node7" class="node"><title>SuppliersController</title>
<path fill="none" stroke="black" d="M-158.5,-171.5C-158.5,-171.5 -59.5,-171.5 -59.5,-171.5 -53.5,-171.5 -47.5,-177.5 -47.5,-183.5 -47.5,-183.5 -47.5,-372.5 -47.5,-372.5 -47.5,-378.5 -53.5,-384.5 -59.5,-384.5 -59.5,-384.5 -158.5,-384.5 -158.5,-384.5 -164.5,-384.5 -170.5,-378.5 -170.5,-372.5 -170.5,-372.5 -170.5,-183.5 -170.5,-183.5 -170.5,-177.5 -164.5,-171.5 -158.5,-171.5"/>
<text text-anchor="middle" x="-109" y="-369.3" font-family="Times,serif" font-size="14.00">SuppliersController</text>
<polyline fill="none" stroke="black" points="-170.5,-361.5 -47.5,-361.5 "/>
<text text-anchor="start" x="-162.5" y="-346.3" font-family="Times,serif" font-size="14.00">create</text>
<text text-anchor="start" x="-162.5" y="-331.3" font-family="Times,serif" font-size="14.00">destroy</text>
<text text-anchor="start" x="-162.5" y="-316.3" font-family="Times,serif" font-size="14.00">edit</text>
<text text-anchor="start" x="-162.5" y="-301.3" font-family="Times,serif" font-size="14.00">index</text>
<text text-anchor="start" x="-162.5" y="-286.3" font-family="Times,serif" font-size="14.00">new</text>
<text text-anchor="start" x="-162.5" y="-271.3" font-family="Times,serif" font-size="14.00">show</text>
<text text-anchor="start" x="-162.5" y="-256.3" font-family="Times,serif" font-size="14.00">update</text>
<polyline fill="none" stroke="black" points="-170.5,-248.5 -47.5,-248.5 "/>
<polyline fill="none" stroke="black" points="-170.5,-224.5 -47.5,-224.5 "/>
<text text-anchor="start" x="-162.5" y="-209.3" font-family="Times,serif" font-size="14.00">_layout</text>
<text text-anchor="start" x="-162.5" y="-194.3" font-family="Times,serif" font-size="14.00">set_supplier</text>
<text text-anchor="start" x="-162.5" y="-179.3" font-family="Times,serif" font-size="14.00">supplier_params</text>
</g>
<!-- TypesController -->
<g id="node8" class="node"><title>TypesController</title>
<path fill="none" stroke="black" d="M316.5,-114.5C316.5,-114.5 397.5,-114.5 397.5,-114.5 403.5,-114.5 409.5,-120.5 409.5,-126.5 409.5,-126.5 409.5,-315.5 409.5,-315.5 409.5,-321.5 403.5,-327.5 397.5,-327.5 397.5,-327.5 316.5,-327.5 316.5,-327.5 310.5,-327.5 304.5,-321.5 304.5,-315.5 304.5,-315.5 304.5,-126.5 304.5,-126.5 304.5,-120.5 310.5,-114.5 316.5,-114.5"/>
<text text-anchor="middle" x="357" y="-312.3" font-family="Times,serif" font-size="14.00">TypesController</text>
<polyline fill="none" stroke="black" points="304.5,-304.5 409.5,-304.5 "/>
<text text-anchor="start" x="312.5" y="-289.3" font-family="Times,serif" font-size="14.00">create</text>
<text text-anchor="start" x="312.5" y="-274.3" font-family="Times,serif" font-size="14.00">destroy</text>
<text text-anchor="start" x="312.5" y="-259.3" font-family="Times,serif" font-size="14.00">edit</text>
<text text-anchor="start" x="312.5" y="-244.3" font-family="Times,serif" font-size="14.00">index</text>
<text text-anchor="start" x="312.5" y="-229.3" font-family="Times,serif" font-size="14.00">new</text>
<text text-anchor="start" x="312.5" y="-214.3" font-family="Times,serif" font-size="14.00">show</text>
<text text-anchor="start" x="312.5" y="-199.3" font-family="Times,serif" font-size="14.00">update</text>
<polyline fill="none" stroke="black" points="304.5,-191.5 409.5,-191.5 "/>
<polyline fill="none" stroke="black" points="304.5,-167.5 409.5,-167.5 "/>
<text text-anchor="start" x="312.5" y="-152.3" font-family="Times,serif" font-size="14.00">_layout</text>
<text text-anchor="start" x="312.5" y="-137.3" font-family="Times,serif" font-size="14.00">set_type</text>
<text text-anchor="start" x="312.5" y="-122.3" font-family="Times,serif" font-size="14.00">type_params</text>
</g>
<!-- ComponentTypesController -->
<g id="node9" class="node"><title>ComponentTypesController</title>
<path fill="none" stroke="black" d="M144.5,132.5C144.5,132.5 289.5,132.5 289.5,132.5 295.5,132.5 301.5,126.5 301.5,120.5 301.5,120.5 301.5,-68.5 301.5,-68.5 301.5,-74.5 295.5,-80.5 289.5,-80.5 289.5,-80.5 144.5,-80.5 144.5,-80.5 138.5,-80.5 132.5,-74.5 132.5,-68.5 132.5,-68.5 132.5,120.5 132.5,120.5 132.5,126.5 138.5,132.5 144.5,132.5"/>
<text text-anchor="middle" x="217" y="-65.3" font-family="Times,serif" font-size="14.00">ComponentTypesController</text>
<polyline fill="none" stroke="black" points="132.5,-57.5 301.5,-57.5 "/>
<text text-anchor="start" x="140.5" y="-42.3" font-family="Times,serif" font-size="14.00">create</text>
<text text-anchor="start" x="140.5" y="-27.3" font-family="Times,serif" font-size="14.00">destroy</text>
<text text-anchor="start" x="140.5" y="-12.3" font-family="Times,serif" font-size="14.00">edit</text>
<text text-anchor="start" x="140.5" y="2.7" font-family="Times,serif" font-size="14.00">index</text>
<text text-anchor="start" x="140.5" y="17.7" font-family="Times,serif" font-size="14.00">new</text>
<text text-anchor="start" x="140.5" y="32.7" font-family="Times,serif" font-size="14.00">show</text>
<text text-anchor="start" x="140.5" y="47.7" font-family="Times,serif" font-size="14.00">update</text>
<polyline fill="none" stroke="black" points="132.5,55.5 301.5,55.5 "/>
<polyline fill="none" stroke="black" points="132.5,79.5 301.5,79.5 "/>
<text text-anchor="start" x="140.5" y="94.7" font-family="Times,serif" font-size="14.00">_layout</text>
<text text-anchor="start" x="140.5" y="109.7" font-family="Times,serif" font-size="14.00">component_type_params</text>
<text text-anchor="start" x="140.5" y="124.7" font-family="Times,serif" font-size="14.00">set_component_type</text>
</g>
</g>
</svg>
