<?xml version="1.0" encoding="UTF-8" standalone="no"?>
<!DOCTYPE svg PUBLIC "-//W3C//DTD SVG 1.1//EN"
 "http://www.w3.org/Graphics/SVG/1.1/DTD/svg11.dtd">
<!-- Generated by graphviz version 2.38.0 (20140413.2041)
 -->
<!-- Title: controllers_diagram Pages: 1 -->
<svg width="510pt" height="599pt"
 viewBox="0.00 0.00 509.50 599.50" xmlns="http://www.w3.org/2000/svg" xmlns:xlink="http://www.w3.org/1999/xlink">
<g id="graph0" class="graph" transform="scale(1 1) rotate(0) translate(238 362)">
<title>controllers_diagram</title>
<polygon fill="none" stroke="none" points="-238,237.5 -238,-362 271.5,-362 271.5,237.5 -238,237.5"/>
<!-- _diagram_info -->
<g id="node1" class="node"><title>_diagram_info</title>
<text text-anchor="start" x="8" y="152.4" font-family="Times,serif" font-size="13.00">Controllers diagram</text>
<text text-anchor="start" x="8" y="166.4" font-family="Times,serif" font-size="13.00">Date: Mar 07 2017 &#45; 17:23</text>
<text text-anchor="start" x="8" y="180.4" font-family="Times,serif" font-size="13.00">Migration version: 20170306144146</text>
<text text-anchor="start" x="8" y="194.4" font-family="Times,serif" font-size="13.00">Generated by RailRoady 1.5.2</text>
<text text-anchor="start" x="8" y="208.4" font-family="Times,serif" font-size="13.00">http://railroady.prestonlee.com</text>
</g>
<!-- ComponentsController -->
<g id="node2" class="node"><title>ComponentsController</title>
<path fill="none" stroke="black" d="M-59.5,107.5C-59.5,107.5 57.5,107.5 57.5,107.5 63.5,107.5 69.5,101.5 69.5,95.5 69.5,95.5 69.5,-93.5 69.5,-93.5 69.5,-99.5 63.5,-105.5 57.5,-105.5 57.5,-105.5 -59.5,-105.5 -59.5,-105.5 -65.5,-105.5 -71.5,-99.5 -71.5,-93.5 -71.5,-93.5 -71.5,95.5 -71.5,95.5 -71.5,101.5 -65.5,107.5 -59.5,107.5"/>
<text text-anchor="middle" x="-1" y="-90.3" font-family="Times,serif" font-size="14.00">ComponentsController</text>
<polyline fill="none" stroke="black" points="-71.5,-82.5 69.5,-82.5 "/>
<text text-anchor="start" x="-63.5" y="-67.3" font-family="Times,serif" font-size="14.00">create</text>
<text text-anchor="start" x="-63.5" y="-52.3" font-family="Times,serif" font-size="14.00">destroy</text>
<text text-anchor="start" x="-63.5" y="-37.3" font-family="Times,serif" font-size="14.00">edit</text>
<text text-anchor="start" x="-63.5" y="-22.3" font-family="Times,serif" font-size="14.00">index</text>
<text text-anchor="start" x="-63.5" y="-7.3" font-family="Times,serif" font-size="14.00">new</text>
<text text-anchor="start" x="-63.5" y="7.7" font-family="Times,serif" font-size="14.00">show</text>
<text text-anchor="start" x="-63.5" y="22.7" font-family="Times,serif" font-size="14.00">update</text>
<polyline fill="none" stroke="black" points="-71.5,30.5 69.5,30.5 "/>
<polyline fill="none" stroke="black" points="-71.5,54.5 69.5,54.5 "/>
<text text-anchor="start" x="-63.5" y="69.7" font-family="Times,serif" font-size="14.00">_layout</text>
<text text-anchor="start" x="-63.5" y="84.7" font-family="Times,serif" font-size="14.00">component_params</text>
<text text-anchor="start" x="-63.5" y="99.7" font-family="Times,serif" font-size="14.00">set_component</text>
</g>
<!-- PackagesController -->
<g id="node3" class="node"><title>PackagesController</title>
<path fill="none" stroke="black" d="M120,107.5C120,107.5 218,107.5 218,107.5 224,107.5 230,101.5 230,95.5 230,95.5 230,-93.5 230,-93.5 230,-99.5 224,-105.5 218,-105.5 218,-105.5 120,-105.5 120,-105.5 114,-105.5 108,-99.5 108,-93.5 108,-93.5 108,95.5 108,95.5 108,101.5 114,107.5 120,107.5"/>
<text text-anchor="middle" x="169" y="-90.3" font-family="Times,serif" font-size="14.00">PackagesController</text>
<polyline fill="none" stroke="black" points="108,-82.5 230,-82.5 "/>
<text text-anchor="start" x="116" y="-67.3" font-family="Times,serif" font-size="14.00">create</text>
<text text-anchor="start" x="116" y="-52.3" font-family="Times,serif" font-size="14.00">destroy</text>
<text text-anchor="start" x="116" y="-37.3" font-family="Times,serif" font-size="14.00">edit</text>
<text text-anchor="start" x="116" y="-22.3" font-family="Times,serif" font-size="14.00">index</text>
<text text-anchor="start" x="116" y="-7.3" font-family="Times,serif" font-size="14.00">new</text>
<text text-anchor="start" x="116" y="7.7" font-family="Times,serif" font-size="14.00">show</text>
<text text-anchor="start" x="116" y="22.7" font-family="Times,serif" font-size="14.00">update</text>
<polyline fill="none" stroke="black" points="108,30.5 230,30.5 "/>
<polyline fill="none" stroke="black" points="108,54.5 230,54.5 "/>
<text text-anchor="start" x="116" y="69.7" font-family="Times,serif" font-size="14.00">_layout</text>
<text text-anchor="start" x="116" y="84.7" font-family="Times,serif" font-size="14.00">package_params</text>
<text text-anchor="start" x="116" y="99.7" font-family="Times,serif" font-size="14.00">set_package</text>
</g>
<!-- ApplicationController -->
<g id="node4" class="node"><title>ApplicationController</title>
<path fill="none" stroke="black" d="M-222,233C-222,233 -110,233 -110,233 -104,233 -98,227 -98,221 -98,221 -98,151 -98,151 -98,145 -104,139 -110,139 -110,139 -222,139 -222,139 -228,139 -234,145 -234,151 -234,151 -234,221 -234,221 -234,227 -228,233 -222,233"/>
<text text-anchor="middle" x="-166" y="154.2" font-family="Times,serif" font-size="14.00">ApplicationController</text>
<polyline fill="none" stroke="black" points="-234,162 -98,162 "/>
<polyline fill="none" stroke="black" points="-234,186 -98,186 "/>
<polyline fill="none" stroke="black" points="-234,210 -98,210 "/>
<text text-anchor="start" x="-226" y="225.2" font-family="Times,serif" font-size="14.00">_layout</text>
</g>
<!-- UsersController -->
<g id="node5" class="node"><title>UsersController</title>
<path fill="none" stroke="black" d="M12.5,-144.5C12.5,-144.5 91.5,-144.5 91.5,-144.5 97.5,-144.5 103.5,-150.5 103.5,-156.5 103.5,-156.5 103.5,-345.5 103.5,-345.5 103.5,-351.5 97.5,-357.5 91.5,-357.5 91.5,-357.5 12.5,-357.5 12.5,-357.5 6.5,-357.5 0.5,-351.5 0.5,-345.5 0.5,-345.5 0.5,-156.5 0.5,-156.5 0.5,-150.5 6.5,-144.5 12.5,-144.5"/>
<text text-anchor="middle" x="52" y="-342.3" font-family="Times,serif" font-size="14.00">UsersController</text>
<polyline fill="none" stroke="black" points="0.5,-334.5 103.5,-334.5 "/>
<text text-anchor="start" x="8.5" y="-319.3" font-family="Times,serif" font-size="14.00">create</text>
<text text-anchor="start" x="8.5" y="-304.3" font-family="Times,serif" font-size="14.00">destroy</text>
<text text-anchor="start" x="8.5" y="-289.3" font-family="Times,serif" font-size="14.00">edit</text>
<text text-anchor="start" x="8.5" y="-274.3" font-family="Times,serif" font-size="14.00">index</text>
<text text-anchor="start" x="8.5" y="-259.3" font-family="Times,serif" font-size="14.00">new</text>
<text text-anchor="start" x="8.5" y="-244.3" font-family="Times,serif" font-size="14.00">show</text>
<text text-anchor="start" x="8.5" y="-229.3" font-family="Times,serif" font-size="14.00">update</text>
<polyline fill="none" stroke="black" points="0.5,-221.5 103.5,-221.5 "/>
<polyline fill="none" stroke="black" points="0.5,-197.5 103.5,-197.5 "/>
<text text-anchor="start" x="8.5" y="-182.3" font-family="Times,serif" font-size="14.00">_layout</text>
<text text-anchor="start" x="8.5" y="-167.3" font-family="Times,serif" font-size="14.00">set_user</text>
<text text-anchor="start" x="8.5" y="-152.3" font-family="Times,serif" font-size="14.00">user_params</text>
</g>
<!-- SuppliersController -->
<g id="node6" class="node"><title>SuppliersController</title>
<path fill="none" stroke="black" d="M156.5,-144.5C156.5,-144.5 255.5,-144.5 255.5,-144.5 261.5,-144.5 267.5,-150.5 267.5,-156.5 267.5,-156.5 267.5,-345.5 267.5,-345.5 267.5,-351.5 261.5,-357.5 255.5,-357.5 255.5,-357.5 156.5,-357.5 156.5,-357.5 150.5,-357.5 144.5,-351.5 144.5,-345.5 144.5,-345.5 144.5,-156.5 144.5,-156.5 144.5,-150.5 150.5,-144.5 156.5,-144.5"/>
<text text-anchor="middle" x="206" y="-342.3" font-family="Times,serif" font-size="14.00">SuppliersController</text>
<polyline fill="none" stroke="black" points="144.5,-334.5 267.5,-334.5 "/>
<text text-anchor="start" x="152.5" y="-319.3" font-family="Times,serif" font-size="14.00">create</text>
<text text-anchor="start" x="152.5" y="-304.3" font-family="Times,serif" font-size="14.00">destroy</text>
<text text-anchor="start" x="152.5" y="-289.3" font-family="Times,serif" font-size="14.00">edit</text>
<text text-anchor="start" x="152.5" y="-274.3" font-family="Times,serif" font-size="14.00">index</text>
<text text-anchor="start" x="152.5" y="-259.3" font-family="Times,serif" font-size="14.00">new</text>
<text text-anchor="start" x="152.5" y="-244.3" font-family="Times,serif" font-size="14.00">show</text>
<text text-anchor="start" x="152.5" y="-229.3" font-family="Times,serif" font-size="14.00">update</text>
<polyline fill="none" stroke="black" points="144.5,-221.5 267.5,-221.5 "/>
<polyline fill="none" stroke="black" points="144.5,-197.5 267.5,-197.5 "/>
<text text-anchor="start" x="152.5" y="-182.3" font-family="Times,serif" font-size="14.00">_layout</text>
<text text-anchor="start" x="152.5" y="-167.3" font-family="Times,serif" font-size="14.00">set_supplier</text>
<text text-anchor="start" x="152.5" y="-152.3" font-family="Times,serif" font-size="14.00">supplier_params</text>
</g>
<!-- TypesController -->
<g id="node7" class="node"><title>TypesController</title>
<path fill="none" stroke="black" d="M-131.5,-144.5C-131.5,-144.5 -50.5,-144.5 -50.5,-144.5 -44.5,-144.5 -38.5,-150.5 -38.5,-156.5 -38.5,-156.5 -38.5,-345.5 -38.5,-345.5 -38.5,-351.5 -44.5,-357.5 -50.5,-357.5 -50.5,-357.5 -131.5,-357.5 -131.5,-357.5 -137.5,-357.5 -143.5,-351.5 -143.5,-345.5 -143.5,-345.5 -143.5,-156.5 -143.5,-156.5 -143.5,-150.5 -137.5,-144.5 -131.5,-144.5"/>
<text text-anchor="middle" x="-91" y="-342.3" font-family="Times,serif" font-size="14.00">TypesController</text>
<polyline fill="none" stroke="black" points="-143.5,-334.5 -38.5,-334.5 "/>
<text text-anchor="start" x="-135.5" y="-319.3" font-family="Times,serif" font-size="14.00">create</text>
<text text-anchor="start" x="-135.5" y="-304.3" font-family="Times,serif" font-size="14.00">destroy</text>
<text text-anchor="start" x="-135.5" y="-289.3" font-family="Times,serif" font-size="14.00">edit</text>
<text text-anchor="start" x="-135.5" y="-274.3" font-family="Times,serif" font-size="14.00">index</text>
<text text-anchor="start" x="-135.5" y="-259.3" font-family="Times,serif" font-size="14.00">new</text>
<text text-anchor="start" x="-135.5" y="-244.3" font-family="Times,serif" font-size="14.00">show</text>
<text text-anchor="start" x="-135.5" y="-229.3" font-family="Times,serif" font-size="14.00">update</text>
<polyline fill="none" stroke="black" points="-143.5,-221.5 -38.5,-221.5 "/>
<polyline fill="none" stroke="black" points="-143.5,-197.5 -38.5,-197.5 "/>
<text text-anchor="start" x="-135.5" y="-182.3" font-family="Times,serif" font-size="14.00">_layout</text>
<text text-anchor="start" x="-135.5" y="-167.3" font-family="Times,serif" font-size="14.00">set_type</text>
<text text-anchor="start" x="-135.5" y="-152.3" font-family="Times,serif" font-size="14.00">type_params</text>
</g>
</g>
</svg>
