<?xml version="1.0" encoding="UTF-8" standalone="no"?>
<!DOCTYPE svg PUBLIC "-//W3C//DTD SVG 1.1//EN"
 "http://www.w3.org/Graphics/SVG/1.1/DTD/svg11.dtd">
<!-- Generated by graphviz version 2.38.0 (20140413.2041)
 -->
<!-- Title: models_diagram Pages: 1 -->
<svg width="900pt" height="521pt"
 viewBox="0.00 0.00 900.34 521.00" xmlns="http://www.w3.org/2000/svg" xmlns:xlink="http://www.w3.org/1999/xlink">
<g id="graph0" class="graph" transform="scale(1 1) rotate(0) translate(4 517)">
<title>models_diagram</title>
<polygon fill="none" stroke="none" points="-4,4 -4,-517 896.343,-517 896.343,4 -4,4"/>
<!-- _diagram_info -->
<g id="node1" class="node"><title>_diagram_info</title>
<text text-anchor="start" x="8" y="-469.1" font-family="Times,serif" font-size="13.00">Models diagram</text>
<text text-anchor="start" x="8" y="-455.1" font-family="Times,serif" font-size="13.00">Date: Mar 16 2017 &#45; 19:30</text>
<text text-anchor="start" x="8" y="-441.1" font-family="Times,serif" font-size="13.00">Migration version: 20170316104822</text>
<text text-anchor="start" x="8" y="-427.1" font-family="Times,serif" font-size="13.00">Generated by RailRoady 1.5.2</text>
<text text-anchor="start" x="8" y="-413.1" font-family="Times,serif" font-size="13.00">http://railroady.prestonlee.com</text>
</g>
<!-- Package -->
<g id="node2" class="node"><title>Package</title>
<path fill="none" stroke="black" d="M244,-391.5C244,-391.5 366,-391.5 366,-391.5 372,-391.5 378,-397.5 378,-403.5 378,-403.5 378,-485.5 378,-485.5 378,-491.5 372,-497.5 366,-497.5 366,-497.5 244,-497.5 244,-497.5 238,-497.5 232,-491.5 232,-485.5 232,-485.5 232,-403.5 232,-403.5 232,-397.5 238,-391.5 244,-391.5"/>
<text text-anchor="middle" x="305" y="-482.3" font-family="Times,serif" font-size="14.00">Package</text>
<polyline fill="none" stroke="black" points="232,-474.5 378,-474.5 "/>
<text text-anchor="start" x="240" y="-459.3" font-family="Times,serif" font-size="14.00">id :INTEGER</text>
<text text-anchor="start" x="240" y="-444.3" font-family="Times,serif" font-size="14.00">package_name :varchar</text>
<text text-anchor="start" x="240" y="-429.3" font-family="Times,serif" font-size="14.00">cost :decimal</text>
<text text-anchor="start" x="240" y="-414.3" font-family="Times,serif" font-size="14.00">created_at :datetime</text>
<text text-anchor="start" x="240" y="-399.3" font-family="Times,serif" font-size="14.00">updated_at :datetime</text>
</g>
<!-- ComponentPackage -->
<g id="node3" class="node"><title>ComponentPackage</title>
<path fill="none" stroke="black" d="M309,-0.5C309,-0.5 425,-0.5 425,-0.5 431,-0.5 437,-6.5 437,-12.5 437,-12.5 437,-109.5 437,-109.5 437,-115.5 431,-121.5 425,-121.5 425,-121.5 309,-121.5 309,-121.5 303,-121.5 297,-115.5 297,-109.5 297,-109.5 297,-12.5 297,-12.5 297,-6.5 303,-0.5 309,-0.5"/>
<text text-anchor="middle" x="367" y="-106.3" font-family="Times,serif" font-size="14.00">ComponentPackage</text>
<polyline fill="none" stroke="black" points="297,-98.5 437,-98.5 "/>
<text text-anchor="start" x="305" y="-83.3" font-family="Times,serif" font-size="14.00">id :INTEGER</text>
<text text-anchor="start" x="305" y="-68.3" font-family="Times,serif" font-size="14.00">component_id :integer</text>
<text text-anchor="start" x="305" y="-53.3" font-family="Times,serif" font-size="14.00">package_id :integer</text>
<text text-anchor="start" x="305" y="-38.3" font-family="Times,serif" font-size="14.00">quantity :integer</text>
<text text-anchor="start" x="305" y="-23.3" font-family="Times,serif" font-size="14.00">created_at :datetime</text>
<text text-anchor="start" x="305" y="-8.3" font-family="Times,serif" font-size="14.00">updated_at :datetime</text>
</g>
<!-- Package&#45;&gt;ComponentPackage -->
<g id="edge1" class="edge"><title>Package&#45;&gt;ComponentPackage</title>
<path fill="none" stroke="#e39475" d="M302.89,-383.31C302.264,-324.868 305.076,-234.083 324,-158 326.217,-149.085 329.224,-139.967 332.623,-131.069"/>
<ellipse fill="none" stroke="#e39475" cx="302.945" cy="-387.337" rx="4" ry="4"/>
<polygon fill="#e39475" stroke="#e39475" points="332.729,-130.804 340.625,-123.195 334.589,-126.163 336.448,-121.521 336.448,-121.521 336.448,-121.521 334.589,-126.163 332.271,-119.848 332.729,-130.804 332.729,-130.804"/>
</g>
<!-- Component -->
<g id="node5" class="node"><title>Component</title>
<path fill="none" stroke="black" d="M345,-158.5C345,-158.5 513,-158.5 513,-158.5 519,-158.5 525,-164.5 525,-170.5 525,-170.5 525,-327.5 525,-327.5 525,-333.5 519,-339.5 513,-339.5 513,-339.5 345,-339.5 345,-339.5 339,-339.5 333,-333.5 333,-327.5 333,-327.5 333,-170.5 333,-170.5 333,-164.5 339,-158.5 345,-158.5"/>
<text text-anchor="middle" x="429" y="-324.3" font-family="Times,serif" font-size="14.00">Component</text>
<polyline fill="none" stroke="black" points="333,-316.5 525,-316.5 "/>
<text text-anchor="start" x="341" y="-301.3" font-family="Times,serif" font-size="14.00">id :INTEGER</text>
<text text-anchor="start" x="341" y="-286.3" font-family="Times,serif" font-size="14.00">component_id :varchar</text>
<text text-anchor="start" x="341" y="-271.3" font-family="Times,serif" font-size="14.00">component_description :varchar</text>
<text text-anchor="start" x="341" y="-256.3" font-family="Times,serif" font-size="14.00">component_type :varchar</text>
<text text-anchor="start" x="341" y="-241.3" font-family="Times,serif" font-size="14.00">quantity :integer</text>
<text text-anchor="start" x="341" y="-226.3" font-family="Times,serif" font-size="14.00">cost :decimal</text>
<text text-anchor="start" x="341" y="-211.3" font-family="Times,serif" font-size="14.00">retail_price :decimal</text>
<text text-anchor="start" x="341" y="-196.3" font-family="Times,serif" font-size="14.00">created_at :datetime</text>
<text text-anchor="start" x="341" y="-181.3" font-family="Times,serif" font-size="14.00">updated_at :datetime</text>
<text text-anchor="start" x="341" y="-166.3" font-family="Times,serif" font-size="14.00">supplier_id :integer</text>
</g>
<!-- Package&#45;&gt;Component -->
<g id="edge2" class="edge"><title>Package&#45;&gt;Component</title>
<path fill="none" stroke="#85ca90" d="M343.793,-382.965C350.904,-371.867 358.492,-360.027 366.098,-348.158"/>
<polygon fill="#85ca90" stroke="#85ca90" points="343.788,-382.971 334.604,-388.963 341.091,-387.181 338.393,-391.391 338.393,-391.391 338.393,-391.391 341.091,-387.181 342.182,-393.819 343.788,-382.971 343.788,-382.971"/>
<polygon fill="#85ca90" stroke="#85ca90" points="366.237,-347.94 375.421,-341.949 368.935,-343.731 371.633,-339.521 371.633,-339.521 371.633,-339.521 368.935,-343.731 367.844,-337.093 366.237,-347.94 366.237,-347.94"/>
</g>
<!-- Type -->
<g id="node4" class="node"><title>Type</title>
<path fill="none" stroke="black" d="M578,-391.5C578,-391.5 708,-391.5 708,-391.5 714,-391.5 720,-397.5 720,-403.5 720,-403.5 720,-485.5 720,-485.5 720,-491.5 714,-497.5 708,-497.5 708,-497.5 578,-497.5 578,-497.5 572,-497.5 566,-491.5 566,-485.5 566,-485.5 566,-403.5 566,-403.5 566,-397.5 572,-391.5 578,-391.5"/>
<text text-anchor="middle" x="643" y="-482.3" font-family="Times,serif" font-size="14.00">Type</text>
<polyline fill="none" stroke="black" points="566,-474.5 720,-474.5 "/>
<text text-anchor="start" x="574" y="-459.3" font-family="Times,serif" font-size="14.00">id :INTEGER</text>
<text text-anchor="start" x="574" y="-444.3" font-family="Times,serif" font-size="14.00">user_type :varchar</text>
<text text-anchor="start" x="574" y="-429.3" font-family="Times,serif" font-size="14.00">user_description :varchar</text>
<text text-anchor="start" x="574" y="-414.3" font-family="Times,serif" font-size="14.00">created_at :datetime</text>
<text text-anchor="start" x="574" y="-399.3" font-family="Times,serif" font-size="14.00">updated_at :datetime</text>
</g>
<!-- User -->
<g id="node7" class="node"><title>User</title>
<path fill="none" stroke="black" d="M585,-166C585,-166 701,-166 701,-166 707,-166 713,-172 713,-178 713,-178 713,-320 713,-320 713,-326 707,-332 701,-332 701,-332 585,-332 585,-332 579,-332 573,-326 573,-320 573,-320 573,-178 573,-178 573,-172 579,-166 585,-166"/>
<text text-anchor="middle" x="643" y="-316.8" font-family="Times,serif" font-size="14.00">User</text>
<polyline fill="none" stroke="black" points="573,-309 713,-309 "/>
<text text-anchor="start" x="581" y="-293.8" font-family="Times,serif" font-size="14.00">id :INTEGER</text>
<text text-anchor="start" x="581" y="-278.8" font-family="Times,serif" font-size="14.00">user_name :varchar</text>
<text text-anchor="start" x="581" y="-263.8" font-family="Times,serif" font-size="14.00">password :varchar</text>
<text text-anchor="start" x="581" y="-248.8" font-family="Times,serif" font-size="14.00">type_id :integer</text>
<text text-anchor="start" x="581" y="-233.8" font-family="Times,serif" font-size="14.00">last_name :varchar</text>
<text text-anchor="start" x="581" y="-218.8" font-family="Times,serif" font-size="14.00">first_name :varchar</text>
<text text-anchor="start" x="581" y="-203.8" font-family="Times,serif" font-size="14.00">middle_name :varchar</text>
<text text-anchor="start" x="581" y="-188.8" font-family="Times,serif" font-size="14.00">created_at :datetime</text>
<text text-anchor="start" x="581" y="-173.8" font-family="Times,serif" font-size="14.00">updated_at :datetime</text>
</g>
<!-- Type&#45;&gt;User -->
<g id="edge3" class="edge"><title>Type&#45;&gt;User</title>
<path fill="none" stroke="#c23d4a" d="M643,-383.098C643,-370.098 643,-356.072 643,-342.173"/>
<ellipse fill="none" stroke="#c23d4a" cx="643" cy="-387.391" rx="4" ry="4"/>
<polygon fill="#c23d4a" stroke="#c23d4a" points="643,-342.092 647.5,-332.092 643,-337.092 643,-332.092 643,-332.092 643,-332.092 643,-337.092 638.5,-332.092 643,-342.092 643,-342.092"/>
</g>
<!-- Component&#45;&gt;ComponentPackage -->
<g id="edge4" class="edge"><title>Component&#45;&gt;ComponentPackage</title>
<path fill="none" stroke="#dd4f3e" d="M396.463,-150.389C394.316,-143.947 392.178,-137.534 390.092,-131.275"/>
<ellipse fill="none" stroke="#dd4f3e" cx="397.825" cy="-154.474" rx="4.00001" ry="4.00001"/>
<polygon fill="#dd4f3e" stroke="#dd4f3e" points="390.023,-131.07 391.13,-120.16 388.442,-126.326 386.861,-121.583 386.861,-121.583 386.861,-121.583 388.442,-126.326 382.592,-123.006 390.023,-131.07 390.023,-131.07"/>
</g>
<!-- Supplier -->
<g id="node6" class="node"><title>Supplier</title>
<path fill="none" stroke="black" d="M408,-376.5C408,-376.5 536,-376.5 536,-376.5 542,-376.5 548,-382.5 548,-388.5 548,-388.5 548,-500.5 548,-500.5 548,-506.5 542,-512.5 536,-512.5 536,-512.5 408,-512.5 408,-512.5 402,-512.5 396,-506.5 396,-500.5 396,-500.5 396,-388.5 396,-388.5 396,-382.5 402,-376.5 408,-376.5"/>
<text text-anchor="middle" x="472" y="-497.3" font-family="Times,serif" font-size="14.00">Supplier</text>
<polyline fill="none" stroke="black" points="396,-489.5 548,-489.5 "/>
<text text-anchor="start" x="404" y="-474.3" font-family="Times,serif" font-size="14.00">id :INTEGER</text>
<text text-anchor="start" x="404" y="-459.3" font-family="Times,serif" font-size="14.00">company_code :varchar</text>
<text text-anchor="start" x="404" y="-444.3" font-family="Times,serif" font-size="14.00">company_name :varchar</text>
<text text-anchor="start" x="404" y="-429.3" font-family="Times,serif" font-size="14.00">address :varchar</text>
<text text-anchor="start" x="404" y="-414.3" font-family="Times,serif" font-size="14.00">contact_number :varchar</text>
<text text-anchor="start" x="404" y="-399.3" font-family="Times,serif" font-size="14.00">created_at :datetime</text>
<text text-anchor="start" x="404" y="-384.3" font-family="Times,serif" font-size="14.00">updated_at :datetime</text>
</g>
<!-- Supplier&#45;&gt;Component -->
<g id="edge5" class="edge"><title>Supplier&#45;&gt;Component</title>
<path fill="none" stroke="#9a18ad" d="M455.327,-368.472C453.943,-362.244 452.531,-355.889 451.115,-349.518"/>
<ellipse fill="none" stroke="#9a18ad" cx="456.214" cy="-372.461" rx="4.00001" ry="4.00001"/>
<polygon fill="#9a18ad" stroke="#9a18ad" points="451.06,-349.271 453.284,-338.533 449.976,-344.39 448.891,-339.509 448.891,-339.509 448.891,-339.509 449.976,-344.39 444.498,-340.486 451.06,-349.271 451.06,-349.271"/>
</g>
<!-- ApplicationRecord -->
<g id="node8" class="node"><title>ApplicationRecord</title>
<ellipse fill="none" stroke="black" cx="815" cy="-444.5" rx="77.1866" ry="18"/>
<text text-anchor="middle" x="815" y="-440.8" font-family="Times,serif" font-size="14.00">ApplicationRecord</text>
</g>
</g>
</svg>
