<?xml version="1.0" encoding="UTF-8" standalone="no"?>
<!DOCTYPE svg PUBLIC "-//W3C//DTD SVG 1.1//EN"
 "http://www.w3.org/Graphics/SVG/1.1/DTD/svg11.dtd">
<!-- Generated by graphviz version 2.38.0 (20140413.2041)
 -->
<!-- Title: models_diagram Pages: 1 -->
<svg width="1058pt" height="551pt"
 viewBox="0.00 0.00 1058.34 551.00" xmlns="http://www.w3.org/2000/svg" xmlns:xlink="http://www.w3.org/1999/xlink">
<g id="graph0" class="graph" transform="scale(1 1) rotate(0) translate(4 547)">
<title>models_diagram</title>
<polygon fill="none" stroke="none" points="-4,4 -4,-547 1054.34,-547 1054.34,4 -4,4"/>
<!-- _diagram_info -->
<g id="node1" class="node"><title>_diagram_info</title>
<text text-anchor="start" x="8" y="-484.1" font-family="Times,serif" font-size="13.00">Models diagram</text>
<text text-anchor="start" x="8" y="-470.1" font-family="Times,serif" font-size="13.00">Date: Mar 10 2017 &#45; 23:34</text>
<text text-anchor="start" x="8" y="-456.1" font-family="Times,serif" font-size="13.00">Migration version: 20170310152835</text>
<text text-anchor="start" x="8" y="-442.1" font-family="Times,serif" font-size="13.00">Generated by RailRoady 1.5.2</text>
<text text-anchor="start" x="8" y="-428.1" font-family="Times,serif" font-size="13.00">http://railroady.prestonlee.com</text>
</g>
<!-- Package -->
<g id="node2" class="node"><title>Package</title>
<path fill="none" stroke="black" d="M244,-406.5C244,-406.5 366,-406.5 366,-406.5 372,-406.5 378,-412.5 378,-418.5 378,-418.5 378,-500.5 378,-500.5 378,-506.5 372,-512.5 366,-512.5 366,-512.5 244,-512.5 244,-512.5 238,-512.5 232,-506.5 232,-500.5 232,-500.5 232,-418.5 232,-418.5 232,-412.5 238,-406.5 244,-406.5"/>
<text text-anchor="middle" x="305" y="-497.3" font-family="Times,serif" font-size="14.00">Package</text>
<polyline fill="none" stroke="black" points="232,-489.5 378,-489.5 "/>
<text text-anchor="start" x="240" y="-474.3" font-family="Times,serif" font-size="14.00">id :INTEGER</text>
<text text-anchor="start" x="240" y="-459.3" font-family="Times,serif" font-size="14.00">package_name :varchar</text>
<text text-anchor="start" x="240" y="-444.3" font-family="Times,serif" font-size="14.00">cost :decimal</text>
<text text-anchor="start" x="240" y="-429.3" font-family="Times,serif" font-size="14.00">created_at :datetime</text>
<text text-anchor="start" x="240" y="-414.3" font-family="Times,serif" font-size="14.00">updated_at :datetime</text>
</g>
<!-- ComponentPackage -->
<g id="node3" class="node"><title>ComponentPackage</title>
<path fill="none" stroke="black" d="M309,-0.5C309,-0.5 425,-0.5 425,-0.5 431,-0.5 437,-6.5 437,-12.5 437,-12.5 437,-109.5 437,-109.5 437,-115.5 431,-121.5 425,-121.5 425,-121.5 309,-121.5 309,-121.5 303,-121.5 297,-115.5 297,-109.5 297,-109.5 297,-12.5 297,-12.5 297,-6.5 303,-0.5 309,-0.5"/>
<text text-anchor="middle" x="367" y="-106.3" font-family="Times,serif" font-size="14.00">ComponentPackage</text>
<polyline fill="none" stroke="black" points="297,-98.5 437,-98.5 "/>
<text text-anchor="start" x="305" y="-83.3" font-family="Times,serif" font-size="14.00">id :INTEGER</text>
<text text-anchor="start" x="305" y="-68.3" font-family="Times,serif" font-size="14.00">component_id :integer</text>
<text text-anchor="start" x="305" y="-53.3" font-family="Times,serif" font-size="14.00">package_id :integer</text>
<text text-anchor="start" x="305" y="-38.3" font-family="Times,serif" font-size="14.00">quantity :integer</text>
<text text-anchor="start" x="305" y="-23.3" font-family="Times,serif" font-size="14.00">created_at :datetime</text>
<text text-anchor="start" x="305" y="-8.3" font-family="Times,serif" font-size="14.00">updated_at :datetime</text>
</g>
<!-- Package&#45;&gt;ComponentPackage -->
<g id="edge1" class="edge"><title>Package&#45;&gt;ComponentPackage</title>
<path fill="none" stroke="#fd81dc" d="M302.562,-398.298C301.521,-336.94 303.878,-239.474 324,-158 326.203,-149.081 329.2,-139.961 332.595,-131.062"/>
<ellipse fill="none" stroke="#fd81dc" cx="302.642" cy="-402.341" rx="4" ry="4"/>
<polygon fill="#fd81dc" stroke="#fd81dc" points="332.701,-130.798 340.594,-123.185 334.558,-126.156 336.416,-121.513 336.416,-121.513 336.416,-121.513 334.558,-126.156 332.238,-119.842 332.701,-130.798 332.701,-130.798"/>
</g>
<!-- Component -->
<g id="node5" class="node"><title>Component</title>
<path fill="none" stroke="black" d="M345,-158.5C345,-158.5 513,-158.5 513,-158.5 519,-158.5 525,-164.5 525,-170.5 525,-170.5 525,-327.5 525,-327.5 525,-333.5 519,-339.5 513,-339.5 513,-339.5 345,-339.5 345,-339.5 339,-339.5 333,-333.5 333,-327.5 333,-327.5 333,-170.5 333,-170.5 333,-164.5 339,-158.5 345,-158.5"/>
<text text-anchor="middle" x="429" y="-324.3" font-family="Times,serif" font-size="14.00">Component</text>
<polyline fill="none" stroke="black" points="333,-316.5 525,-316.5 "/>
<text text-anchor="start" x="341" y="-301.3" font-family="Times,serif" font-size="14.00">id :INTEGER</text>
<text text-anchor="start" x="341" y="-286.3" font-family="Times,serif" font-size="14.00">component_id :varchar</text>
<text text-anchor="start" x="341" y="-271.3" font-family="Times,serif" font-size="14.00">component_description :varchar</text>
<text text-anchor="start" x="341" y="-256.3" font-family="Times,serif" font-size="14.00">component_type :varchar</text>
<text text-anchor="start" x="341" y="-241.3" font-family="Times,serif" font-size="14.00">quantity :integer</text>
<text text-anchor="start" x="341" y="-226.3" font-family="Times,serif" font-size="14.00">cost :decimal</text>
<text text-anchor="start" x="341" y="-211.3" font-family="Times,serif" font-size="14.00">retail_price :decimal</text>
<text text-anchor="start" x="341" y="-196.3" font-family="Times,serif" font-size="14.00">created_at :datetime</text>
<text text-anchor="start" x="341" y="-181.3" font-family="Times,serif" font-size="14.00">updated_at :datetime</text>
<text text-anchor="start" x="341" y="-166.3" font-family="Times,serif" font-size="14.00">supplier_id :integer</text>
</g>
<!-- Package&#45;&gt;Component -->
<g id="edge2" class="edge"><title>Package&#45;&gt;Component</title>
<path fill="none" stroke="#af7204" d="M341.172,-397.678C350.387,-382.185 360.528,-365.133 370.545,-348.29"/>
<polygon fill="#af7204" stroke="#af7204" points="341.082,-397.83 332.103,-404.124 338.526,-402.127 335.971,-406.424 335.971,-406.424 335.971,-406.424 338.526,-402.127 339.838,-408.725 341.082,-397.83 341.082,-397.83"/>
<polygon fill="#af7204" stroke="#af7204" points="370.655,-348.105 379.634,-341.81 373.211,-343.807 375.766,-339.51 375.766,-339.51 375.766,-339.51 373.211,-343.807 371.899,-337.21 370.655,-348.105 370.655,-348.105"/>
</g>
<!-- Type -->
<g id="node4" class="node"><title>Type</title>
<path fill="none" stroke="black" d="M578,-406.5C578,-406.5 708,-406.5 708,-406.5 714,-406.5 720,-412.5 720,-418.5 720,-418.5 720,-500.5 720,-500.5 720,-506.5 714,-512.5 708,-512.5 708,-512.5 578,-512.5 578,-512.5 572,-512.5 566,-506.5 566,-500.5 566,-500.5 566,-418.5 566,-418.5 566,-412.5 572,-406.5 578,-406.5"/>
<text text-anchor="middle" x="643" y="-497.3" font-family="Times,serif" font-size="14.00">Type</text>
<polyline fill="none" stroke="black" points="566,-489.5 720,-489.5 "/>
<text text-anchor="start" x="574" y="-474.3" font-family="Times,serif" font-size="14.00">id :INTEGER</text>
<text text-anchor="start" x="574" y="-459.3" font-family="Times,serif" font-size="14.00">user_type :varchar</text>
<text text-anchor="start" x="574" y="-444.3" font-family="Times,serif" font-size="14.00">user_description :varchar</text>
<text text-anchor="start" x="574" y="-429.3" font-family="Times,serif" font-size="14.00">created_at :datetime</text>
<text text-anchor="start" x="574" y="-414.3" font-family="Times,serif" font-size="14.00">updated_at :datetime</text>
</g>
<!-- Component&#45;&gt;ComponentPackage -->
<g id="edge3" class="edge"><title>Component&#45;&gt;ComponentPackage</title>
<path fill="none" stroke="#8fa1da" d="M396.463,-150.389C394.316,-143.947 392.178,-137.534 390.092,-131.275"/>
<ellipse fill="none" stroke="#8fa1da" cx="397.825" cy="-154.474" rx="4.00001" ry="4.00001"/>
<polygon fill="#8fa1da" stroke="#8fa1da" points="390.023,-131.07 391.13,-120.16 388.442,-126.326 386.861,-121.583 386.861,-121.583 386.861,-121.583 388.442,-126.326 382.592,-123.006 390.023,-131.07 390.023,-131.07"/>
</g>
<!-- Supplier -->
<g id="node6" class="node"><title>Supplier</title>
<path fill="none" stroke="black" d="M408,-391.5C408,-391.5 536,-391.5 536,-391.5 542,-391.5 548,-397.5 548,-403.5 548,-403.5 548,-515.5 548,-515.5 548,-521.5 542,-527.5 536,-527.5 536,-527.5 408,-527.5 408,-527.5 402,-527.5 396,-521.5 396,-515.5 396,-515.5 396,-403.5 396,-403.5 396,-397.5 402,-391.5 408,-391.5"/>
<text text-anchor="middle" x="472" y="-512.3" font-family="Times,serif" font-size="14.00">Supplier</text>
<polyline fill="none" stroke="black" points="396,-504.5 548,-504.5 "/>
<text text-anchor="start" x="404" y="-489.3" font-family="Times,serif" font-size="14.00">id :INTEGER</text>
<text text-anchor="start" x="404" y="-474.3" font-family="Times,serif" font-size="14.00">company_code :varchar</text>
<text text-anchor="start" x="404" y="-459.3" font-family="Times,serif" font-size="14.00">company_name :varchar</text>
<text text-anchor="start" x="404" y="-444.3" font-family="Times,serif" font-size="14.00">address :varchar</text>
<text text-anchor="start" x="404" y="-429.3" font-family="Times,serif" font-size="14.00">contact_number :varchar</text>
<text text-anchor="start" x="404" y="-414.3" font-family="Times,serif" font-size="14.00">created_at :datetime</text>
<text text-anchor="start" x="404" y="-399.3" font-family="Times,serif" font-size="14.00">updated_at :datetime</text>
</g>
<!-- Supplier&#45;&gt;Component -->
<g id="edge4" class="edge"><title>Supplier&#45;&gt;Component</title>
<path fill="none" stroke="#898a3b" d="M456.468,-383.19C454.223,-372.302 451.883,-360.957 449.558,-349.683"/>
<ellipse fill="none" stroke="#898a3b" cx="457.35" cy="-387.464" rx="4.00001" ry="4.00001"/>
<polygon fill="#898a3b" stroke="#898a3b" points="449.541,-349.602 451.929,-338.899 448.531,-344.705 447.522,-339.808 447.522,-339.808 447.522,-339.808 448.531,-344.705 443.114,-340.717 449.541,-349.602 449.541,-349.602"/>
</g>
<!-- User -->
<g id="node7" class="node"><title>User</title>
<path fill="none" stroke="black" d="M750,-376.5C750,-376.5 866,-376.5 866,-376.5 872,-376.5 878,-382.5 878,-388.5 878,-388.5 878,-530.5 878,-530.5 878,-536.5 872,-542.5 866,-542.5 866,-542.5 750,-542.5 750,-542.5 744,-542.5 738,-536.5 738,-530.5 738,-530.5 738,-388.5 738,-388.5 738,-382.5 744,-376.5 750,-376.5"/>
<text text-anchor="middle" x="808" y="-527.3" font-family="Times,serif" font-size="14.00">User</text>
<polyline fill="none" stroke="black" points="738,-519.5 878,-519.5 "/>
<text text-anchor="start" x="746" y="-504.3" font-family="Times,serif" font-size="14.00">id :INTEGER</text>
<text text-anchor="start" x="746" y="-489.3" font-family="Times,serif" font-size="14.00">user_name :varchar</text>
<text text-anchor="start" x="746" y="-474.3" font-family="Times,serif" font-size="14.00">password :varchar</text>
<text text-anchor="start" x="746" y="-459.3" font-family="Times,serif" font-size="14.00">user_type :integer</text>
<text text-anchor="start" x="746" y="-444.3" font-family="Times,serif" font-size="14.00">last_name :varchar</text>
<text text-anchor="start" x="746" y="-429.3" font-family="Times,serif" font-size="14.00">first_name :varchar</text>
<text text-anchor="start" x="746" y="-414.3" font-family="Times,serif" font-size="14.00">middle_name :varchar</text>
<text text-anchor="start" x="746" y="-399.3" font-family="Times,serif" font-size="14.00">created_at :datetime</text>
<text text-anchor="start" x="746" y="-384.3" font-family="Times,serif" font-size="14.00">updated_at :datetime</text>
</g>
<!-- ApplicationRecord -->
<g id="node8" class="node"><title>ApplicationRecord</title>
<ellipse fill="none" stroke="black" cx="973" cy="-459.5" rx="77.1866" ry="18"/>
<text text-anchor="middle" x="973" y="-455.8" font-family="Times,serif" font-size="14.00">ApplicationRecord</text>
</g>
</g>
</svg>
