<?xml version="1.0" encoding="UTF-8" standalone="no"?>
<!DOCTYPE svg PUBLIC "-//W3C//DTD SVG 1.1//EN"
 "http://www.w3.org/Graphics/SVG/1.1/DTD/svg11.dtd">
<!-- Generated by graphviz version 2.38.0 (20140413.2041)
 -->
<!-- Title: models_diagram Pages: 1 -->
<svg width="825pt" height="230pt"
 viewBox="0.00 0.00 825.34 230.00" xmlns="http://www.w3.org/2000/svg" xmlns:xlink="http://www.w3.org/1999/xlink">
<g id="graph0" class="graph" transform="scale(1 1) rotate(0) translate(4 226)">
<title>models_diagram</title>
<polygon fill="none" stroke="none" points="-4,4 -4,-226 821.343,-226 821.343,4 -4,4"/>
<!-- _diagram_info -->
<g id="node1" class="node"><title>_diagram_info</title>
<text text-anchor="start" x="8" y="-207.6" font-family="Times,serif" font-size="13.00">Models diagram</text>
<text text-anchor="start" x="8" y="-193.6" font-family="Times,serif" font-size="13.00">Date: Mar 17 2017 &#45; 10:38</text>
<text text-anchor="start" x="8" y="-179.6" font-family="Times,serif" font-size="13.00">Migration version: 20170317021837</text>
<text text-anchor="start" x="8" y="-165.6" font-family="Times,serif" font-size="13.00">Generated by RailRoady 1.5.2</text>
<text text-anchor="start" x="8" y="-151.6" font-family="Times,serif" font-size="13.00">http://railroady.prestonlee.com</text>
</g>
<!-- Package -->
<g id="node2" class="node"><title>Package</title>
<ellipse fill="none" stroke="black" cx="272" cy="-183" rx="40.0939" ry="18"/>
<text text-anchor="middle" x="272" y="-179.3" font-family="Times,serif" font-size="14.00">Package</text>
</g>
<!-- ComponentPackage -->
<g id="node3" class="node"><title>ComponentPackage</title>
<ellipse fill="none" stroke="black" cx="321" cy="-18" rx="81.4863" ry="18"/>
<text text-anchor="middle" x="321" y="-14.3" font-family="Times,serif" font-size="14.00">ComponentPackage</text>
</g>
<!-- Package&#45;&gt;ComponentPackage -->
<g id="edge1" class="edge"><title>Package&#45;&gt;ComponentPackage</title>
<path fill="none" stroke="#a3aa53" d="M279.434,-157.176C286.114,-134.879 296.198,-101.247 305,-72 307.56,-63.4937 310.357,-54.2214 312.886,-45.845"/>
<ellipse fill="none" stroke="#a3aa53" cx="278.283" cy="-161.017" rx="4.00001" ry="4.00001"/>
<polygon fill="#a3aa53" stroke="#a3aa53" points="312.913,-45.7563 320.112,-37.4847 314.359,-40.9699 315.804,-36.1835 315.804,-36.1835 315.804,-36.1835 314.359,-40.9699 311.497,-34.8823 312.913,-45.7563 312.913,-45.7563"/>
</g>
<!-- Component -->
<g id="node5" class="node"><title>Component</title>
<ellipse fill="none" stroke="black" cx="366" cy="-90" rx="51.9908" ry="18"/>
<text text-anchor="middle" x="366" y="-86.3" font-family="Times,serif" font-size="14.00">Component</text>
</g>
<!-- Package&#45;&gt;Component -->
<g id="edge2" class="edge"><title>Package&#45;&gt;Component</title>
<path fill="none" stroke="#eb8e9a" d="M295.623,-159.131C309.699,-145.504 327.528,-128.244 341.719,-114.506"/>
<polygon fill="#eb8e9a" stroke="#eb8e9a" points="295.558,-159.193 285.244,-162.916 291.966,-162.671 288.374,-166.149 288.374,-166.149 288.374,-166.149 291.966,-162.671 291.504,-169.382 295.558,-159.193 295.558,-159.193"/>
<polygon fill="#eb8e9a" stroke="#eb8e9a" points="341.996,-114.238 352.311,-110.515 345.589,-110.76 349.181,-107.282 349.181,-107.282 349.181,-107.282 345.589,-110.76 346.051,-104.049 341.996,-114.238 341.996,-114.238"/>
</g>
<!-- Type -->
<g id="node4" class="node"><title>Type</title>
<ellipse fill="none" stroke="black" cx="616" cy="-183" rx="28.6953" ry="18"/>
<text text-anchor="middle" x="616" y="-179.3" font-family="Times,serif" font-size="14.00">Type</text>
</g>
<!-- User -->
<g id="node7" class="node"><title>User</title>
<ellipse fill="none" stroke="black" cx="616" cy="-90" rx="27.0966" ry="18"/>
<text text-anchor="middle" x="616" y="-86.3" font-family="Times,serif" font-size="14.00">User</text>
</g>
<!-- Type&#45;&gt;User -->
<g id="edge3" class="edge"><title>Type&#45;&gt;User</title>
<path fill="none" stroke="#b218e4" d="M616,-156.729C616,-144.725 616,-130.362 616,-118.129"/>
<ellipse fill="none" stroke="#b218e4" cx="616" cy="-160.884" rx="4" ry="4"/>
<polygon fill="#b218e4" stroke="#b218e4" points="616,-118.04 620.5,-108.04 616,-113.04 616,-108.04 616,-108.04 616,-108.04 616,-113.04 611.5,-108.04 616,-118.04 616,-118.04"/>
</g>
<!-- Component&#45;&gt;ComponentPackage -->
<g id="edge4" class="edge"><title>Component&#45;&gt;ComponentPackage</title>
<path fill="none" stroke="#7e5d04" d="M350.639,-65.1057C346.456,-58.5986 341.906,-51.5203 337.655,-44.9073"/>
<ellipse fill="none" stroke="#7e5d04" cx="352.944" cy="-68.6902" rx="4.00002" ry="4.00002"/>
<polygon fill="#7e5d04" stroke="#7e5d04" points="337.513,-44.6871 335.891,-33.8419 334.809,-40.4812 332.106,-36.2753 332.106,-36.2753 332.106,-36.2753 334.809,-40.4812 328.32,-38.7087 337.513,-44.6871 337.513,-44.6871"/>
</g>
<!-- Supplier -->
<g id="node6" class="node"><title>Supplier</title>
<ellipse fill="none" stroke="black" cx="371" cy="-183" rx="40.0939" ry="18"/>
<text text-anchor="middle" x="371" y="-179.3" font-family="Times,serif" font-size="14.00">Supplier</text>
</g>
<!-- Supplier&#45;&gt;Component -->
<g id="edge5" class="edge"><title>Supplier&#45;&gt;Component</title>
<path fill="none" stroke="#10d59b" d="M369.611,-156.729C368.952,-144.725 368.163,-130.362 367.491,-118.129"/>
<ellipse fill="none" stroke="#10d59b" cx="369.84" cy="-160.89" rx="4" ry="4"/>
<polygon fill="#10d59b" stroke="#10d59b" points="367.485,-118.025 371.429,-107.793 367.211,-113.032 366.936,-108.04 366.936,-108.04 366.936,-108.04 367.211,-113.032 362.443,-108.287 367.485,-118.025 367.485,-118.025"/>
</g>
<!-- ComponentType -->
<g id="node8" class="node"><title>ComponentType</title>
<ellipse fill="none" stroke="black" cx="499" cy="-183" rx="70.3881" ry="18"/>
<text text-anchor="middle" x="499" y="-179.3" font-family="Times,serif" font-size="14.00">ComponentType</text>
</g>
<!-- ComponentType&#45;&gt;Component -->
<g id="edge6" class="edge"><title>ComponentType&#45;&gt;Component</title>
<path fill="none" stroke="#6de87c" d="M468.896,-161.403C447.39,-146.688 418.543,-126.95 396.865,-112.118"/>
<ellipse fill="none" stroke="#6de87c" cx="472.227" cy="-163.682" rx="4.00002" ry="4.00002"/>
<polygon fill="#6de87c" stroke="#6de87c" points="396.605,-111.94 390.893,-102.579 392.478,-109.117 388.351,-106.293 388.351,-106.293 388.351,-106.293 392.478,-109.117 385.81,-110.007 396.605,-111.94 396.605,-111.94"/>
</g>
<!-- ApplicationRecord -->
<g id="node9" class="node"><title>ApplicationRecord</title>
<ellipse fill="none" stroke="black" cx="740" cy="-183" rx="77.1866" ry="18"/>
<text text-anchor="middle" x="740" y="-179.3" font-family="Times,serif" font-size="14.00">ApplicationRecord</text>
</g>
</g>
</svg>
