<?xml version="1.0" encoding="UTF-8" standalone="no"?>
<!DOCTYPE svg PUBLIC "-//W3C//DTD SVG 1.1//EN"
 "http://www.w3.org/Graphics/SVG/1.1/DTD/svg11.dtd">
<!-- Generated by graphviz version 2.38.0 (20140413.2041)
 -->
<!-- Title: models_diagram Pages: 1 -->
<svg width="740pt" height="230pt"
 viewBox="0.00 0.00 740.34 230.00" xmlns="http://www.w3.org/2000/svg" xmlns:xlink="http://www.w3.org/1999/xlink">
<g id="graph0" class="graph" transform="scale(1 1) rotate(0) translate(4 226)">
<title>models_diagram</title>
<polygon fill="none" stroke="none" points="-4,4 -4,-226 736.343,-226 736.343,4 -4,4"/>
<!-- _diagram_info -->
<g id="node1" class="node"><title>_diagram_info</title>
<text text-anchor="start" x="8" y="-207.6" font-family="Times,serif" font-size="13.00">Models diagram</text>
<text text-anchor="start" x="8" y="-193.6" font-family="Times,serif" font-size="13.00">Date: Mar 10 2017 &#45; 23:34</text>
<text text-anchor="start" x="8" y="-179.6" font-family="Times,serif" font-size="13.00">Migration version: 20170310152835</text>
<text text-anchor="start" x="8" y="-165.6" font-family="Times,serif" font-size="13.00">Generated by RailRoady 1.5.2</text>
<text text-anchor="start" x="8" y="-151.6" font-family="Times,serif" font-size="13.00">http://railroady.prestonlee.com</text>
</g>
<!-- Package -->
<g id="node2" class="node"><title>Package</title>
<ellipse fill="none" stroke="black" cx="272" cy="-183" rx="40.0939" ry="18"/>
<text text-anchor="middle" x="272" y="-179.3" font-family="Times,serif" font-size="14.00">Package</text>
</g>
<!-- ComponentPackage -->
<g id="node3" class="node"><title>ComponentPackage</title>
<ellipse fill="none" stroke="black" cx="312" cy="-18" rx="81.4863" ry="18"/>
<text text-anchor="middle" x="312" y="-14.3" font-family="Times,serif" font-size="14.00">ComponentPackage</text>
</g>
<!-- Package&#45;&gt;ComponentPackage -->
<g id="edge1" class="edge"><title>Package&#45;&gt;ComponentPackage</title>
<path fill="none" stroke="#d5efab" d="M274.831,-156.948C277.726,-134.438 282.952,-100.619 291,-72 293.465,-63.2345 296.871,-53.9242 300.222,-45.5928"/>
<ellipse fill="none" stroke="#d5efab" cx="274.326" cy="-161.018" rx="4.00001" ry="4.00001"/>
<polygon fill="#d5efab" stroke="#d5efab" points="300.226,-45.584 308.226,-38.0843 302.149,-40.9687 304.072,-36.3533 304.072,-36.3533 304.072,-36.3533 302.149,-40.9687 299.918,-34.6224 300.226,-45.584 300.226,-45.584"/>
</g>
<!-- Component -->
<g id="node5" class="node"><title>Component</title>
<ellipse fill="none" stroke="black" cx="352" cy="-90" rx="51.9908" ry="18"/>
<text text-anchor="middle" x="352" y="-86.3" font-family="Times,serif" font-size="14.00">Component</text>
</g>
<!-- Package&#45;&gt;Component -->
<g id="edge2" class="edge"><title>Package&#45;&gt;Component</title>
<path fill="none" stroke="#d10d9c" d="M293.21,-157.873C304.804,-144.685 319.123,-128.398 330.726,-115.199"/>
<polygon fill="#d10d9c" stroke="#d10d9c" points="292.905,-158.221 282.923,-162.76 289.604,-161.976 286.302,-165.731 286.302,-165.731 286.302,-165.731 289.604,-161.976 289.682,-168.702 292.905,-158.221 292.905,-158.221"/>
<polygon fill="#d10d9c" stroke="#d10d9c" points="330.949,-114.945 340.931,-110.406 334.25,-111.19 337.552,-107.435 337.552,-107.435 337.552,-107.435 334.25,-111.19 334.172,-104.464 330.949,-114.945 330.949,-114.945"/>
</g>
<!-- Type -->
<g id="node4" class="node"><title>Type</title>
<ellipse fill="none" stroke="black" cx="458" cy="-183" rx="28.6953" ry="18"/>
<text text-anchor="middle" x="458" y="-179.3" font-family="Times,serif" font-size="14.00">Type</text>
</g>
<!-- Component&#45;&gt;ComponentPackage -->
<g id="edge3" class="edge"><title>Component&#45;&gt;ComponentPackage</title>
<path fill="none" stroke="#f1079c" d="M338.346,-65.1057C334.712,-58.7465 330.767,-51.8417 327.062,-45.3589"/>
<ellipse fill="none" stroke="#f1079c" cx="340.333" cy="-68.582" rx="4.00002" ry="4.00002"/>
<polygon fill="#f1079c" stroke="#f1079c" points="326.833,-44.9577 325.779,-34.0427 324.352,-40.6165 321.872,-36.2753 321.872,-36.2753 321.872,-36.2753 324.352,-40.6165 317.964,-38.5079 326.833,-44.9577 326.833,-44.9577"/>
</g>
<!-- Supplier -->
<g id="node6" class="node"><title>Supplier</title>
<ellipse fill="none" stroke="black" cx="371" cy="-183" rx="40.0939" ry="18"/>
<text text-anchor="middle" x="371" y="-179.3" font-family="Times,serif" font-size="14.00">Supplier</text>
</g>
<!-- Supplier&#45;&gt;Component -->
<g id="edge4" class="edge"><title>Supplier&#45;&gt;Component</title>
<path fill="none" stroke="#ba0c66" d="M365.724,-156.729C363.217,-144.725 360.218,-130.362 357.664,-118.129"/>
<ellipse fill="none" stroke="#ba0c66" cx="366.609" cy="-160.968" rx="4.00001" ry="4.00001"/>
<polygon fill="#ba0c66" stroke="#ba0c66" points="357.602,-117.829 359.963,-107.12 356.58,-112.934 355.558,-108.04 355.558,-108.04 355.558,-108.04 356.58,-112.934 351.153,-108.959 357.602,-117.829 357.602,-117.829"/>
</g>
<!-- User -->
<g id="node7" class="node"><title>User</title>
<ellipse fill="none" stroke="black" cx="532" cy="-183" rx="27.0966" ry="18"/>
<text text-anchor="middle" x="532" y="-179.3" font-family="Times,serif" font-size="14.00">User</text>
</g>
<!-- ApplicationRecord -->
<g id="node8" class="node"><title>ApplicationRecord</title>
<ellipse fill="none" stroke="black" cx="655" cy="-183" rx="77.1866" ry="18"/>
<text text-anchor="middle" x="655" y="-179.3" font-family="Times,serif" font-size="14.00">ApplicationRecord</text>
</g>
</g>
</svg>
