<?xml version="1.0" encoding="UTF-8" standalone="no"?>
<!DOCTYPE svg PUBLIC "-//W3C//DTD SVG 1.1//EN"
 "http://www.w3.org/Graphics/SVG/1.1/DTD/svg11.dtd">
<!-- Generated by graphviz version 2.38.0 (20140413.2041)
 -->
<!-- Title: models_diagram Pages: 1 -->
<svg width="1074pt" height="521pt"
 viewBox="0.00 0.00 1074.34 521.00" xmlns="http://www.w3.org/2000/svg" xmlns:xlink="http://www.w3.org/1999/xlink">
<g id="graph0" class="graph" transform="scale(1 1) rotate(0) translate(4 517)">
<title>models_diagram</title>
<polygon fill="none" stroke="none" points="-4,4 -4,-517 1070.34,-517 1070.34,4 -4,4"/>
<!-- _diagram_info -->
<g id="node1" class="node"><title>_diagram_info</title>
<text text-anchor="start" x="8" y="-469.1" font-family="Times,serif" font-size="13.00">Models diagram</text>
<text text-anchor="start" x="8" y="-455.1" font-family="Times,serif" font-size="13.00">Date: Mar 17 2017 &#45; 10:38</text>
<text text-anchor="start" x="8" y="-441.1" font-family="Times,serif" font-size="13.00">Migration version: 20170317021837</text>
<text text-anchor="start" x="8" y="-427.1" font-family="Times,serif" font-size="13.00">Generated by RailRoady 1.5.2</text>
<text text-anchor="start" x="8" y="-413.1" font-family="Times,serif" font-size="13.00">http://railroady.prestonlee.com</text>
</g>
<!-- Package -->
<g id="node2" class="node"><title>Package</title>
<path fill="none" stroke="black" d="M244,-391.5C244,-391.5 366,-391.5 366,-391.5 372,-391.5 378,-397.5 378,-403.5 378,-403.5 378,-485.5 378,-485.5 378,-491.5 372,-497.5 366,-497.5 366,-497.5 244,-497.5 244,-497.5 238,-497.5 232,-491.5 232,-485.5 232,-485.5 232,-403.5 232,-403.5 232,-397.5 238,-391.5 244,-391.5"/>
<text text-anchor="middle" x="305" y="-482.3" font-family="Times,serif" font-size="14.00">Package</text>
<polyline fill="none" stroke="black" points="232,-474.5 378,-474.5 "/>
<text text-anchor="start" x="240" y="-459.3" font-family="Times,serif" font-size="14.00">id :INTEGER</text>
<text text-anchor="start" x="240" y="-444.3" font-family="Times,serif" font-size="14.00">package_name :varchar</text>
<text text-anchor="start" x="240" y="-429.3" font-family="Times,serif" font-size="14.00">cost :decimal</text>
<text text-anchor="start" x="240" y="-414.3" font-family="Times,serif" font-size="14.00">created_at :datetime</text>
<text text-anchor="start" x="240" y="-399.3" font-family="Times,serif" font-size="14.00">updated_at :datetime</text>
</g>
<!-- ComponentPackage -->
<g id="node3" class="node"><title>ComponentPackage</title>
<path fill="none" stroke="black" d="M330,-0.5C330,-0.5 446,-0.5 446,-0.5 452,-0.5 458,-6.5 458,-12.5 458,-12.5 458,-109.5 458,-109.5 458,-115.5 452,-121.5 446,-121.5 446,-121.5 330,-121.5 330,-121.5 324,-121.5 318,-115.5 318,-109.5 318,-109.5 318,-12.5 318,-12.5 318,-6.5 324,-0.5 330,-0.5"/>
<text text-anchor="middle" x="388" y="-106.3" font-family="Times,serif" font-size="14.00">ComponentPackage</text>
<polyline fill="none" stroke="black" points="318,-98.5 458,-98.5 "/>
<text text-anchor="start" x="326" y="-83.3" font-family="Times,serif" font-size="14.00">id :INTEGER</text>
<text text-anchor="start" x="326" y="-68.3" font-family="Times,serif" font-size="14.00">component_id :integer</text>
<text text-anchor="start" x="326" y="-53.3" font-family="Times,serif" font-size="14.00">package_id :integer</text>
<text text-anchor="start" x="326" y="-38.3" font-family="Times,serif" font-size="14.00">quantity :integer</text>
<text text-anchor="start" x="326" y="-23.3" font-family="Times,serif" font-size="14.00">created_at :datetime</text>
<text text-anchor="start" x="326" y="-8.3" font-family="Times,serif" font-size="14.00">updated_at :datetime</text>
</g>
<!-- Package&#45;&gt;ComponentPackage -->
<g id="edge1" class="edge"><title>Package&#45;&gt;ComponentPackage</title>
<path fill="none" stroke="#beabe3" d="M313.138,-383.455C321.625,-325.306 336.426,-234.894 356,-158 358.228,-149.248 360.851,-140.14 363.622,-131.172"/>
<ellipse fill="none" stroke="#beabe3" cx="312.555" cy="-387.482" rx="4.00001" ry="4.00001"/>
<polygon fill="#beabe3" stroke="#beabe3" points="363.659,-131.053 370.964,-122.875 365.166,-126.286 366.674,-121.518 366.674,-121.518 366.674,-121.518 365.166,-126.286 362.383,-120.162 363.659,-131.053 363.659,-131.053"/>
</g>
<!-- Component -->
<g id="node5" class="node"><title>Component</title>
<path fill="none" stroke="black" d="M377,-158.5C377,-158.5 545,-158.5 545,-158.5 551,-158.5 557,-164.5 557,-170.5 557,-170.5 557,-327.5 557,-327.5 557,-333.5 551,-339.5 545,-339.5 545,-339.5 377,-339.5 377,-339.5 371,-339.5 365,-333.5 365,-327.5 365,-327.5 365,-170.5 365,-170.5 365,-164.5 371,-158.5 377,-158.5"/>
<text text-anchor="middle" x="461" y="-324.3" font-family="Times,serif" font-size="14.00">Component</text>
<polyline fill="none" stroke="black" points="365,-316.5 557,-316.5 "/>
<text text-anchor="start" x="373" y="-301.3" font-family="Times,serif" font-size="14.00">id :INTEGER</text>
<text text-anchor="start" x="373" y="-286.3" font-family="Times,serif" font-size="14.00">component_id :varchar</text>
<text text-anchor="start" x="373" y="-271.3" font-family="Times,serif" font-size="14.00">component_description :varchar</text>
<text text-anchor="start" x="373" y="-256.3" font-family="Times,serif" font-size="14.00">component_type_id :integer</text>
<text text-anchor="start" x="373" y="-241.3" font-family="Times,serif" font-size="14.00">quantity :integer</text>
<text text-anchor="start" x="373" y="-226.3" font-family="Times,serif" font-size="14.00">cost :decimal</text>
<text text-anchor="start" x="373" y="-211.3" font-family="Times,serif" font-size="14.00">retail_price :decimal</text>
<text text-anchor="start" x="373" y="-196.3" font-family="Times,serif" font-size="14.00">created_at :datetime</text>
<text text-anchor="start" x="373" y="-181.3" font-family="Times,serif" font-size="14.00">updated_at :datetime</text>
<text text-anchor="start" x="373" y="-166.3" font-family="Times,serif" font-size="14.00">supplier_id :integer</text>
</g>
<!-- Package&#45;&gt;Component -->
<g id="edge2" class="edge"><title>Package&#45;&gt;Component</title>
<path fill="none" stroke="#ec8af3" d="M353.489,-383.355C362.681,-371.953 372.515,-359.756 382.362,-347.542"/>
<polygon fill="#ec8af3" stroke="#ec8af3" points="353.287,-383.606 343.507,-388.567 350.149,-387.498 347.01,-391.391 347.01,-391.391 347.01,-391.391 350.149,-387.498 350.514,-394.215 353.287,-383.606 353.287,-383.606"/>
<polygon fill="#ec8af3" stroke="#ec8af3" points="382.552,-347.306 392.331,-342.345 385.69,-343.413 388.828,-339.521 388.828,-339.521 388.828,-339.521 385.69,-343.413 385.325,-336.697 382.552,-347.306 382.552,-347.306"/>
</g>
<!-- Type -->
<g id="node4" class="node"><title>Type</title>
<path fill="none" stroke="black" d="M752,-391.5C752,-391.5 882,-391.5 882,-391.5 888,-391.5 894,-397.5 894,-403.5 894,-403.5 894,-485.5 894,-485.5 894,-491.5 888,-497.5 882,-497.5 882,-497.5 752,-497.5 752,-497.5 746,-497.5 740,-491.5 740,-485.5 740,-485.5 740,-403.5 740,-403.5 740,-397.5 746,-391.5 752,-391.5"/>
<text text-anchor="middle" x="817" y="-482.3" font-family="Times,serif" font-size="14.00">Type</text>
<polyline fill="none" stroke="black" points="740,-474.5 894,-474.5 "/>
<text text-anchor="start" x="748" y="-459.3" font-family="Times,serif" font-size="14.00">id :INTEGER</text>
<text text-anchor="start" x="748" y="-444.3" font-family="Times,serif" font-size="14.00">user_type :varchar</text>
<text text-anchor="start" x="748" y="-429.3" font-family="Times,serif" font-size="14.00">user_description :varchar</text>
<text text-anchor="start" x="748" y="-414.3" font-family="Times,serif" font-size="14.00">created_at :datetime</text>
<text text-anchor="start" x="748" y="-399.3" font-family="Times,serif" font-size="14.00">updated_at :datetime</text>
</g>
<!-- User -->
<g id="node7" class="node"><title>User</title>
<path fill="none" stroke="black" d="M759,-166C759,-166 875,-166 875,-166 881,-166 887,-172 887,-178 887,-178 887,-320 887,-320 887,-326 881,-332 875,-332 875,-332 759,-332 759,-332 753,-332 747,-326 747,-320 747,-320 747,-178 747,-178 747,-172 753,-166 759,-166"/>
<text text-anchor="middle" x="817" y="-316.8" font-family="Times,serif" font-size="14.00">User</text>
<polyline fill="none" stroke="black" points="747,-309 887,-309 "/>
<text text-anchor="start" x="755" y="-293.8" font-family="Times,serif" font-size="14.00">id :INTEGER</text>
<text text-anchor="start" x="755" y="-278.8" font-family="Times,serif" font-size="14.00">user_name :varchar</text>
<text text-anchor="start" x="755" y="-263.8" font-family="Times,serif" font-size="14.00">password :varchar</text>
<text text-anchor="start" x="755" y="-248.8" font-family="Times,serif" font-size="14.00">type_id :integer</text>
<text text-anchor="start" x="755" y="-233.8" font-family="Times,serif" font-size="14.00">last_name :varchar</text>
<text text-anchor="start" x="755" y="-218.8" font-family="Times,serif" font-size="14.00">first_name :varchar</text>
<text text-anchor="start" x="755" y="-203.8" font-family="Times,serif" font-size="14.00">middle_name :varchar</text>
<text text-anchor="start" x="755" y="-188.8" font-family="Times,serif" font-size="14.00">created_at :datetime</text>
<text text-anchor="start" x="755" y="-173.8" font-family="Times,serif" font-size="14.00">updated_at :datetime</text>
</g>
<!-- Type&#45;&gt;User -->
<g id="edge3" class="edge"><title>Type&#45;&gt;User</title>
<path fill="none" stroke="#f8f7e1" d="M817,-383.098C817,-370.098 817,-356.072 817,-342.173"/>
<ellipse fill="none" stroke="#f8f7e1" cx="817" cy="-387.391" rx="4" ry="4"/>
<polygon fill="#f8f7e1" stroke="#f8f7e1" points="817,-342.092 821.5,-332.092 817,-337.092 817,-332.092 817,-332.092 817,-332.092 817,-337.092 812.5,-332.092 817,-342.092 817,-342.092"/>
</g>
<!-- Component&#45;&gt;ComponentPackage -->
<g id="edge4" class="edge"><title>Component&#45;&gt;ComponentPackage</title>
<path fill="none" stroke="#be7618" d="M422.805,-150.681C420.19,-144.019 417.587,-137.386 415.05,-130.921"/>
<ellipse fill="none" stroke="#be7618" cx="424.322" cy="-154.545" rx="4.00001" ry="4.00001"/>
<polygon fill="#be7618" stroke="#be7618" points="415.038,-130.892 415.574,-119.939 413.211,-126.237 411.385,-121.583 411.385,-121.583 411.385,-121.583 413.211,-126.237 407.196,-123.227 415.038,-130.892 415.038,-130.892"/>
</g>
<!-- Supplier -->
<g id="node6" class="node"><title>Supplier</title>
<path fill="none" stroke="black" d="M408,-376.5C408,-376.5 536,-376.5 536,-376.5 542,-376.5 548,-382.5 548,-388.5 548,-388.5 548,-500.5 548,-500.5 548,-506.5 542,-512.5 536,-512.5 536,-512.5 408,-512.5 408,-512.5 402,-512.5 396,-506.5 396,-500.5 396,-500.5 396,-388.5 396,-388.5 396,-382.5 402,-376.5 408,-376.5"/>
<text text-anchor="middle" x="472" y="-497.3" font-family="Times,serif" font-size="14.00">Supplier</text>
<polyline fill="none" stroke="black" points="396,-489.5 548,-489.5 "/>
<text text-anchor="start" x="404" y="-474.3" font-family="Times,serif" font-size="14.00">id :INTEGER</text>
<text text-anchor="start" x="404" y="-459.3" font-family="Times,serif" font-size="14.00">company_code :varchar</text>
<text text-anchor="start" x="404" y="-444.3" font-family="Times,serif" font-size="14.00">company_name :varchar</text>
<text text-anchor="start" x="404" y="-429.3" font-family="Times,serif" font-size="14.00">address :varchar</text>
<text text-anchor="start" x="404" y="-414.3" font-family="Times,serif" font-size="14.00">contact_number :varchar</text>
<text text-anchor="start" x="404" y="-399.3" font-family="Times,serif" font-size="14.00">created_at :datetime</text>
<text text-anchor="start" x="404" y="-384.3" font-family="Times,serif" font-size="14.00">updated_at :datetime</text>
</g>
<!-- Supplier&#45;&gt;Component -->
<g id="edge5" class="edge"><title>Supplier&#45;&gt;Component</title>
<path fill="none" stroke="#7c5cc8" d="M467.719,-368.187C467.376,-362.164 467.027,-356.025 466.677,-349.868"/>
<ellipse fill="none" stroke="#7c5cc8" cx="467.957" cy="-372.373" rx="4" ry="4"/>
<polygon fill="#7c5cc8" stroke="#7c5cc8" points="466.656,-349.493 470.581,-339.254 466.372,-344.501 466.088,-339.509 466.088,-339.509 466.088,-339.509 466.372,-344.501 461.596,-339.765 466.656,-349.493 466.656,-349.493"/>
</g>
<!-- ComponentType -->
<g id="node8" class="node"><title>ComponentType</title>
<path fill="none" stroke="black" d="M578.5,-399C578.5,-399 709.5,-399 709.5,-399 715.5,-399 721.5,-405 721.5,-411 721.5,-411 721.5,-478 721.5,-478 721.5,-484 715.5,-490 709.5,-490 709.5,-490 578.5,-490 578.5,-490 572.5,-490 566.5,-484 566.5,-478 566.5,-478 566.5,-411 566.5,-411 566.5,-405 572.5,-399 578.5,-399"/>
<text text-anchor="middle" x="644" y="-474.8" font-family="Times,serif" font-size="14.00">ComponentType</text>
<polyline fill="none" stroke="black" points="566.5,-467 721.5,-467 "/>
<text text-anchor="start" x="574.5" y="-451.8" font-family="Times,serif" font-size="14.00">id :INTEGER</text>
<text text-anchor="start" x="574.5" y="-436.8" font-family="Times,serif" font-size="14.00">type_description :varchar</text>
<text text-anchor="start" x="574.5" y="-421.8" font-family="Times,serif" font-size="14.00">created_at :datetime</text>
<text text-anchor="start" x="574.5" y="-406.8" font-family="Times,serif" font-size="14.00">updated_at :datetime</text>
</g>
<!-- ComponentType&#45;&gt;Component -->
<g id="edge6" class="edge"><title>ComponentType&#45;&gt;Component</title>
<path fill="none" stroke="#2d0701" d="M595.976,-392.72C582.602,-378.579 567.613,-362.73 552.62,-346.877"/>
<ellipse fill="none" stroke="#2d0701" cx="598.808" cy="-395.715" rx="4.00002" ry="4.00002"/>
<polygon fill="#2d0701" stroke="#2d0701" points="552.608,-346.864 549.006,-336.507 549.172,-343.231 545.737,-339.599 545.737,-339.599 545.737,-339.599 549.172,-343.231 542.467,-342.691 552.608,-346.864 552.608,-346.864"/>
</g>
<!-- ApplicationRecord -->
<g id="node9" class="node"><title>ApplicationRecord</title>
<ellipse fill="none" stroke="black" cx="989" cy="-444.5" rx="77.1866" ry="18"/>
<text text-anchor="middle" x="989" y="-440.8" font-family="Times,serif" font-size="14.00">ApplicationRecord</text>
</g>
</g>
</svg>
